<?xml version="1.0" encoding="utf-8" standalone="no"?>
<!DOCTYPE svg PUBLIC "-//W3C//DTD SVG 1.1//EN"
  "http://www.w3.org/Graphics/SVG/1.1/DTD/svg11.dtd">
<!-- Created with matplotlib (https://matplotlib.org/) -->
<svg height="250.155469pt" version="1.1" viewBox="0 0 252.903125 250.155469" width="252.903125pt" xmlns="http://www.w3.org/2000/svg" xmlns:xlink="http://www.w3.org/1999/xlink">
 <defs>
  <style type="text/css">
*{stroke-linecap:butt;stroke-linejoin:round;}
  </style>
 </defs>
 <g id="figure_1">
  <g id="patch_1">
   <path d="M 0 250.155469 
L 252.903125 250.155469 
L 252.903125 0 
L 0 0 
z
" style="fill:#ffffff;"/>
  </g>
  <g id="axes_1">
   <g id="patch_2">
    <path d="M 40.603125 212.599219 
L 242.203125 212.599219 
L 242.203125 10.999219 
L 40.603125 10.999219 
z
" style="fill:#ffffff;"/>
   </g>
   <g id="PolyCollection_1">
    <defs>
     <path d="M 40.603125 -37.55625 
L 40.603125 -37.55625 
L 40.953125 -38.126461 
L 41.303125 -38.126461 
L 41.653125 -38.126461 
L 42.003125 -38.126461 
L 42.353125 -38.126461 
L 42.703125 -38.126461 
L 43.053125 -38.126461 
L 43.403125 -38.126461 
L 43.753125 -38.126461 
L 44.103125 -38.126461 
L 44.453125 -38.126461 
L 44.803125 -38.126461 
L 45.153125 -38.126461 
L 45.503125 -38.126461 
L 45.853125 -38.126461 
L 46.203125 -38.126461 
L 46.553125 -38.126461 
L 46.903125 -38.126461 
L 47.253125 -38.126461 
L 47.603125 -38.126461 
L 47.953125 -38.126461 
L 48.303125 -38.126461 
L 48.653125 -37.55625 
L 49.003125 -37.55625 
L 49.353125 -37.55625 
L 49.703125 -37.55625 
L 50.053125 -37.55625 
L 50.403125 -37.55625 
L 50.753125 -37.55625 
L 51.103125 -37.55625 
L 51.453125 -37.55625 
L 51.803125 -37.55625 
L 52.153125 -37.55625 
L 52.503125 -37.55625 
L 52.853125 -37.55625 
L 53.203125 -37.55625 
L 53.553125 -37.55625 
L 53.903125 -37.55625 
L 54.253125 -37.55625 
L 54.603125 -37.55625 
L 54.953125 -37.55625 
L 55.303125 -37.55625 
L 55.653125 -37.55625 
L 56.003125 -37.55625 
L 56.353125 -37.55625 
L 56.703125 -37.55625 
L 57.053125 -37.55625 
L 57.403125 -37.55625 
L 57.753125 -37.55625 
L 58.103125 -37.55625 
L 58.453125 -37.55625 
L 58.803125 -37.55625 
L 59.153125 -37.55625 
L 59.503125 -37.55625 
L 59.853125 -37.55625 
L 60.203125 -37.55625 
L 60.553125 -37.55625 
L 60.903125 -37.55625 
L 61.253125 -37.55625 
L 61.603125 -37.55625 
L 61.953125 -37.55625 
L 62.303125 -37.55625 
L 62.653125 -37.55625 
L 63.003125 -37.55625 
L 63.353125 -37.55625 
L 63.703125 -37.55625 
L 64.053125 -37.55625 
L 64.403125 -37.55625 
L 64.753125 -37.55625 
L 65.103125 -37.55625 
L 65.453125 -37.55625 
L 65.803125 -37.55625 
L 66.153125 -37.55625 
L 66.503125 -37.55625 
L 66.853125 -37.55625 
L 67.203125 -37.55625 
L 67.553125 -37.55625 
L 67.903125 -37.55625 
L 68.253125 -37.55625 
L 68.603125 -37.55625 
L 68.953125 -37.55625 
L 69.303125 -37.55625 
L 69.653125 -37.55625 
L 70.003125 -37.55625 
L 70.353125 -37.55625 
L 70.703125 -37.55625 
L 71.053125 -37.55625 
L 71.403125 -37.55625 
L 71.753125 -37.55625 
L 72.103125 -37.55625 
L 72.453125 -37.55625 
L 72.803125 -37.55625 
L 73.153125 -37.55625 
L 73.503125 -37.55625 
L 73.853125 -37.55625 
L 74.203125 -37.55625 
L 74.553125 -37.55625 
L 74.903125 -37.55625 
L 75.253125 -37.55625 
L 75.603125 -37.55625 
L 75.953125 -37.55625 
L 76.303125 -37.55625 
L 76.653125 -37.55625 
L 77.003125 -37.55625 
L 77.353125 -37.55625 
L 77.703125 -37.55625 
L 78.053125 -37.55625 
L 78.403125 -37.55625 
L 78.753125 -37.55625 
L 79.103125 -37.55625 
L 79.453125 -37.55625 
L 79.803125 -37.55625 
L 80.153125 -37.55625 
L 80.503125 -37.55625 
L 80.853125 -37.55625 
L 81.203125 -37.55625 
L 81.553125 -37.55625 
L 81.903125 -37.55625 
L 82.253125 -37.55625 
L 82.603125 -37.55625 
L 82.953125 -37.55625 
L 83.303125 -37.55625 
L 83.653125 -37.55625 
L 84.003125 -37.55625 
L 84.353125 -37.55625 
L 84.703125 -37.55625 
L 85.053125 -37.55625 
L 85.403125 -37.55625 
L 85.753125 -37.55625 
L 86.103125 -37.55625 
L 86.453125 -37.55625 
L 86.803125 -37.55625 
L 87.153125 -37.55625 
L 87.503125 -37.55625 
L 87.853125 -37.55625 
L 88.203125 -37.55625 
L 88.553125 -37.55625 
L 88.903125 -37.55625 
L 89.253125 -37.55625 
L 89.603125 -37.55625 
L 89.953125 -37.55625 
L 90.303125 -37.55625 
L 90.653125 -37.55625 
L 91.003125 -37.55625 
L 91.353125 -37.55625 
L 91.703125 -37.55625 
L 92.053125 -37.55625 
L 92.403125 -37.55625 
L 92.753125 -37.55625 
L 93.103125 -37.55625 
L 93.453125 -37.55625 
L 93.803125 -37.55625 
L 94.153125 -37.55625 
L 94.503125 -37.55625 
L 94.853125 -37.55625 
L 95.203125 -37.55625 
L 95.553125 -37.55625 
L 95.903125 -37.55625 
L 96.253125 -37.55625 
L 96.603125 -37.55625 
L 96.953125 -37.55625 
L 97.303125 -37.55625 
L 97.653125 -37.55625 
L 98.003125 -37.55625 
L 98.353125 -37.55625 
L 98.703125 -37.55625 
L 99.053125 -37.55625 
L 99.403125 -37.55625 
L 99.753125 -37.55625 
L 100.103125 -37.55625 
L 100.453125 -37.55625 
L 100.803125 -37.55625 
L 101.153125 -37.55625 
L 101.503125 -37.55625 
L 101.853125 -37.55625 
L 102.203125 -37.55625 
L 102.553125 -37.55625 
L 102.903125 -37.55625 
L 103.253125 -37.55625 
L 103.603125 -37.55625 
L 103.953125 -37.55625 
L 104.303125 -37.55625 
L 104.653125 -37.55625 
L 105.003125 -37.55625 
L 105.353125 -37.55625 
L 105.703125 -37.55625 
L 106.053125 -37.55625 
L 106.403125 -37.55625 
L 106.753125 -37.55625 
L 107.103125 -37.55625 
L 107.453125 -37.55625 
L 107.803125 -37.55625 
L 108.153125 -37.55625 
L 108.503125 -37.55625 
L 108.853125 -37.55625 
L 109.203125 -37.55625 
L 109.553125 -37.55625 
L 109.903125 -37.55625 
L 110.253125 -37.55625 
L 110.603125 -37.55625 
L 110.953125 -37.55625 
L 111.303125 -37.55625 
L 111.653125 -37.55625 
L 112.003125 -37.55625 
L 112.353125 -37.55625 
L 112.703125 -37.55625 
L 113.053125 -37.55625 
L 113.403125 -37.55625 
L 113.753125 -37.55625 
L 114.103125 -37.55625 
L 114.453125 -37.55625 
L 114.803125 -37.55625 
L 115.153125 -37.55625 
L 115.503125 -37.55625 
L 115.853125 -37.55625 
L 116.203125 -37.55625 
L 116.553125 -37.55625 
L 116.903125 -37.55625 
L 117.253125 -37.55625 
L 117.603125 -37.55625 
L 117.953125 -37.55625 
L 118.303125 -37.55625 
L 118.653125 -37.55625 
L 119.003125 -37.55625 
L 119.353125 -37.55625 
L 119.703125 -37.55625 
L 120.053125 -37.55625 
L 120.403125 -37.55625 
L 120.753125 -37.55625 
L 121.103125 -37.55625 
L 121.453125 -37.55625 
L 121.803125 -37.55625 
L 122.153125 -37.55625 
L 122.503125 -37.55625 
L 122.853125 -37.55625 
L 123.203125 -37.55625 
L 123.553125 -37.55625 
L 123.903125 -37.55625 
L 124.253125 -37.55625 
L 124.603125 -37.55625 
L 124.953125 -37.55625 
L 125.303125 -37.55625 
L 125.653125 -37.55625 
L 126.003125 -37.55625 
L 126.353125 -37.55625 
L 126.703125 -37.55625 
L 127.053125 -37.55625 
L 127.403125 -37.55625 
L 127.753125 -37.55625 
L 128.103125 -37.55625 
L 128.453125 -37.55625 
L 128.803125 -37.55625 
L 129.153125 -37.55625 
L 129.503125 -37.55625 
L 129.853125 -37.55625 
L 130.203125 -37.55625 
L 130.553125 -37.55625 
L 130.903125 -37.55625 
L 131.253125 -37.55625 
L 131.603125 -37.55625 
L 131.953125 -37.55625 
L 132.303125 -37.55625 
L 132.653125 -37.55625 
L 133.003125 -37.55625 
L 133.353125 -37.55625 
L 133.703125 -37.55625 
L 134.053125 -37.55625 
L 134.403125 -37.55625 
L 134.753125 -37.55625 
L 135.103125 -37.55625 
L 135.453125 -37.55625 
L 135.803125 -37.55625 
L 136.153125 -37.55625 
L 136.503125 -37.55625 
L 136.853125 -37.55625 
L 137.203125 -37.55625 
L 137.553125 -37.55625 
L 137.903125 -37.55625 
L 138.253125 -37.55625 
L 138.603125 -37.55625 
L 138.953125 -37.55625 
L 139.303125 -37.55625 
L 139.653125 -37.55625 
L 140.003125 -37.55625 
L 140.353125 -37.55625 
L 140.703125 -37.55625 
L 141.053125 -37.55625 
L 141.403125 -37.55625 
L 141.753125 -37.55625 
L 142.103125 -37.55625 
L 142.453125 -37.55625 
L 142.803125 -37.55625 
L 143.153125 -37.55625 
L 143.503125 -37.55625 
L 143.853125 -37.55625 
L 144.203125 -37.55625 
L 144.553125 -37.55625 
L 144.903125 -37.55625 
L 145.253125 -37.55625 
L 145.603125 -37.55625 
L 145.953125 -37.55625 
L 146.303125 -37.55625 
L 146.653125 -37.55625 
L 147.003125 -37.55625 
L 147.353125 -37.55625 
L 147.703125 -37.55625 
L 148.053125 -37.55625 
L 148.403125 -37.55625 
L 148.753125 -37.55625 
L 149.103125 -37.55625 
L 149.453125 -37.55625 
L 149.803125 -37.55625 
L 150.153125 -37.55625 
L 150.503125 -37.55625 
L 150.853125 -37.55625 
L 151.203125 -37.55625 
L 151.553125 -37.55625 
L 151.903125 -37.55625 
L 152.253125 -37.55625 
L 152.603125 -37.55625 
L 152.953125 -37.55625 
L 153.303125 -37.55625 
L 153.653125 -37.55625 
L 154.003125 -37.55625 
L 154.353125 -37.55625 
L 154.703125 -37.55625 
L 155.053125 -37.55625 
L 155.403125 -37.55625 
L 155.753125 -37.55625 
L 156.103125 -37.55625 
L 156.453125 -37.55625 
L 156.803125 -37.55625 
L 157.153125 -37.55625 
L 157.503125 -37.55625 
L 157.853125 -37.55625 
L 158.203125 -37.55625 
L 158.553125 -37.55625 
L 158.903125 -37.55625 
L 159.253125 -37.55625 
L 159.603125 -37.55625 
L 159.953125 -37.55625 
L 160.303125 -37.55625 
L 160.653125 -37.55625 
L 161.003125 -37.55625 
L 161.353125 -37.55625 
L 161.703125 -37.55625 
L 162.053125 -37.55625 
L 162.403125 -37.55625 
L 162.753125 -37.55625 
L 163.103125 -37.55625 
L 163.453125 -37.55625 
L 163.803125 -37.55625 
L 164.153125 -37.55625 
L 164.503125 -37.55625 
L 164.853125 -37.55625 
L 165.203125 -37.55625 
L 165.553125 -37.55625 
L 165.903125 -37.55625 
L 166.253125 -37.55625 
L 166.603125 -37.55625 
L 166.953125 -37.55625 
L 167.303125 -37.55625 
L 167.653125 -37.55625 
L 168.003125 -37.55625 
L 168.353125 -37.55625 
L 168.703125 -37.55625 
L 169.053125 -37.55625 
L 169.403125 -37.55625 
L 169.753125 -37.55625 
L 170.103125 -37.55625 
L 170.453125 -37.55625 
L 170.803125 -37.55625 
L 171.153125 -37.55625 
L 171.503125 -37.55625 
L 171.853125 -37.55625 
L 172.203125 -37.55625 
L 172.553125 -37.55625 
L 172.903125 -37.55625 
L 173.253125 -37.55625 
L 173.603125 -37.55625 
L 173.953125 -37.55625 
L 174.303125 -37.55625 
L 174.653125 -37.55625 
L 175.003125 -37.55625 
L 175.353125 -37.55625 
L 175.703125 -37.55625 
L 176.053125 -37.55625 
L 176.403125 -37.55625 
L 176.753125 -37.55625 
L 177.103125 -37.55625 
L 177.453125 -37.55625 
L 177.803125 -37.55625 
L 178.153125 -37.55625 
L 178.503125 -37.55625 
L 178.853125 -37.55625 
L 179.203125 -37.55625 
L 179.553125 -37.55625 
L 179.903125 -37.55625 
L 180.253125 -37.55625 
L 180.603125 -37.55625 
L 180.953125 -37.55625 
L 181.303125 -37.55625 
L 181.653125 -37.55625 
L 182.003125 -37.55625 
L 182.353125 -37.55625 
L 182.703125 -37.55625 
L 183.053125 -37.55625 
L 183.403125 -37.55625 
L 183.753125 -37.55625 
L 184.103125 -37.55625 
L 184.453125 -37.55625 
L 184.803125 -37.55625 
L 185.153125 -37.55625 
L 185.503125 -37.55625 
L 185.853125 -37.55625 
L 186.203125 -37.55625 
L 186.553125 -37.55625 
L 186.903125 -37.55625 
L 187.253125 -37.55625 
L 187.603125 -37.55625 
L 187.953125 -37.55625 
L 188.303125 -37.55625 
L 188.653125 -37.55625 
L 189.003125 -37.55625 
L 189.353125 -37.55625 
L 189.703125 -37.55625 
L 190.053125 -37.55625 
L 190.403125 -37.55625 
L 190.753125 -37.55625 
L 191.103125 -37.55625 
L 191.453125 -37.55625 
L 191.803125 -37.55625 
L 192.153125 -37.55625 
L 192.503125 -37.55625 
L 192.853125 -37.55625 
L 193.203125 -37.55625 
L 193.553125 -37.55625 
L 193.903125 -37.55625 
L 194.253125 -37.55625 
L 194.603125 -37.55625 
L 194.953125 -37.55625 
L 195.303125 -37.55625 
L 195.653125 -37.55625 
L 196.003125 -37.55625 
L 196.353125 -37.55625 
L 196.703125 -37.55625 
L 197.053125 -37.55625 
L 197.403125 -37.55625 
L 197.753125 -37.55625 
L 198.103125 -37.55625 
L 198.453125 -37.55625 
L 198.803125 -37.55625 
L 199.153125 -37.55625 
L 199.503125 -37.55625 
L 199.853125 -37.55625 
L 200.203125 -37.55625 
L 200.553125 -37.55625 
L 200.903125 -37.55625 
L 201.253125 -37.55625 
L 201.603125 -37.55625 
L 201.953125 -37.55625 
L 202.303125 -37.55625 
L 202.653125 -37.55625 
L 203.003125 -37.55625 
L 203.353125 -37.55625 
L 203.703125 -37.55625 
L 204.053125 -37.55625 
L 204.403125 -37.55625 
L 204.753125 -37.55625 
L 205.103125 -37.55625 
L 205.453125 -37.55625 
L 205.803125 -37.55625 
L 206.153125 -37.55625 
L 206.503125 -37.55625 
L 206.853125 -37.55625 
L 207.203125 -37.55625 
L 207.553125 -37.55625 
L 207.903125 -37.55625 
L 208.253125 -37.55625 
L 208.603125 -37.55625 
L 208.953125 -37.55625 
L 209.303125 -37.55625 
L 209.653125 -37.55625 
L 210.003125 -37.55625 
L 210.353125 -37.55625 
L 210.703125 -37.55625 
L 211.053125 -37.55625 
L 211.403125 -37.55625 
L 211.753125 -37.55625 
L 212.103125 -37.55625 
L 212.453125 -37.55625 
L 212.803125 -37.55625 
L 213.153125 -37.55625 
L 213.503125 -37.55625 
L 213.853125 -37.55625 
L 214.203125 -37.55625 
L 214.553125 -37.55625 
L 214.903125 -37.55625 
L 215.253125 -37.55625 
L 215.603125 -37.55625 
L 215.953125 -37.55625 
L 216.303125 -37.55625 
L 216.653125 -37.55625 
L 217.003125 -37.55625 
L 217.353125 -37.55625 
L 217.703125 -37.55625 
L 218.053125 -37.55625 
L 218.403125 -37.55625 
L 218.753125 -37.55625 
L 219.103125 -37.55625 
L 219.453125 -37.55625 
L 219.803125 -37.55625 
L 220.153125 -37.55625 
L 220.503125 -37.55625 
L 220.853125 -37.55625 
L 221.203125 -37.55625 
L 221.553125 -37.55625 
L 221.903125 -37.55625 
L 222.253125 -37.55625 
L 222.603125 -37.55625 
L 222.953125 -37.55625 
L 223.303125 -37.55625 
L 223.653125 -37.55625 
L 224.003125 -37.55625 
L 224.353125 -37.55625 
L 224.703125 -37.55625 
L 225.053125 -37.55625 
L 225.403125 -37.55625 
L 225.753125 -37.55625 
L 226.103125 -37.55625 
L 226.453125 -37.55625 
L 226.803125 -37.55625 
L 227.153125 -37.55625 
L 227.503125 -37.55625 
L 227.853125 -37.55625 
L 228.203125 -37.55625 
L 228.553125 -37.55625 
L 228.903125 -37.55625 
L 229.253125 -37.55625 
L 229.603125 -37.55625 
L 229.953125 -37.55625 
L 230.303125 -37.55625 
L 230.653125 -37.55625 
L 231.003125 -37.55625 
L 231.353125 -37.55625 
L 231.703125 -37.55625 
L 232.053125 -37.55625 
L 232.403125 -37.55625 
L 232.753125 -37.55625 
L 233.103125 -37.55625 
L 233.453125 -37.55625 
L 233.803125 -37.55625 
L 234.153125 -37.55625 
L 234.503125 -37.55625 
L 234.853125 -37.55625 
L 235.203125 -37.55625 
L 235.553125 -37.55625 
L 235.903125 -37.55625 
L 236.253125 -37.55625 
L 236.603125 -37.55625 
L 236.953125 -37.55625 
L 237.303125 -37.55625 
L 237.653125 -37.55625 
L 238.003125 -37.55625 
L 238.353125 -37.55625 
L 238.703125 -37.55625 
L 239.053125 -37.55625 
L 239.403125 -37.55625 
L 239.753125 -37.55625 
L 240.103125 -37.55625 
L 240.453125 -37.55625 
L 240.803125 -37.55625 
L 241.153125 -37.55625 
L 241.503125 -37.55625 
L 241.853125 -37.55625 
L 242.203125 -37.55625 
L 242.203125 -37.55625 
L 242.203125 -37.55625 
L 241.853125 -37.55625 
L 241.503125 -37.55625 
L 241.153125 -37.55625 
L 240.803125 -37.55625 
L 240.453125 -37.55625 
L 240.103125 -37.55625 
L 239.753125 -37.55625 
L 239.403125 -37.55625 
L 239.053125 -37.55625 
L 238.703125 -37.55625 
L 238.353125 -37.55625 
L 238.003125 -37.55625 
L 237.653125 -37.55625 
L 237.303125 -37.55625 
L 236.953125 -37.55625 
L 236.603125 -37.55625 
L 236.253125 -37.55625 
L 235.903125 -37.55625 
L 235.553125 -37.55625 
L 235.203125 -37.55625 
L 234.853125 -37.55625 
L 234.503125 -37.55625 
L 234.153125 -37.55625 
L 233.803125 -37.55625 
L 233.453125 -37.55625 
L 233.103125 -37.55625 
L 232.753125 -37.55625 
L 232.403125 -37.55625 
L 232.053125 -37.55625 
L 231.703125 -37.55625 
L 231.353125 -37.55625 
L 231.003125 -37.55625 
L 230.653125 -37.55625 
L 230.303125 -37.55625 
L 229.953125 -37.55625 
L 229.603125 -37.55625 
L 229.253125 -37.55625 
L 228.903125 -37.55625 
L 228.553125 -37.55625 
L 228.203125 -37.55625 
L 227.853125 -37.55625 
L 227.503125 -37.55625 
L 227.153125 -37.55625 
L 226.803125 -37.55625 
L 226.453125 -37.55625 
L 226.103125 -37.55625 
L 225.753125 -37.55625 
L 225.403125 -37.55625 
L 225.053125 -37.55625 
L 224.703125 -37.55625 
L 224.353125 -37.55625 
L 224.003125 -37.55625 
L 223.653125 -37.55625 
L 223.303125 -37.55625 
L 222.953125 -37.55625 
L 222.603125 -37.55625 
L 222.253125 -37.55625 
L 221.903125 -37.55625 
L 221.553125 -37.55625 
L 221.203125 -37.55625 
L 220.853125 -37.55625 
L 220.503125 -37.55625 
L 220.153125 -37.55625 
L 219.803125 -37.55625 
L 219.453125 -37.55625 
L 219.103125 -37.55625 
L 218.753125 -37.55625 
L 218.403125 -37.55625 
L 218.053125 -37.55625 
L 217.703125 -37.55625 
L 217.353125 -37.55625 
L 217.003125 -37.55625 
L 216.653125 -37.55625 
L 216.303125 -37.55625 
L 215.953125 -37.55625 
L 215.603125 -37.55625 
L 215.253125 -37.55625 
L 214.903125 -37.55625 
L 214.553125 -37.55625 
L 214.203125 -37.55625 
L 213.853125 -37.55625 
L 213.503125 -37.55625 
L 213.153125 -37.55625 
L 212.803125 -37.55625 
L 212.453125 -37.55625 
L 212.103125 -37.55625 
L 211.753125 -37.55625 
L 211.403125 -37.55625 
L 211.053125 -37.55625 
L 210.703125 -37.55625 
L 210.353125 -37.55625 
L 210.003125 -37.55625 
L 209.653125 -37.55625 
L 209.303125 -37.55625 
L 208.953125 -37.55625 
L 208.603125 -37.55625 
L 208.253125 -37.55625 
L 207.903125 -37.55625 
L 207.553125 -37.55625 
L 207.203125 -37.55625 
L 206.853125 -37.55625 
L 206.503125 -37.55625 
L 206.153125 -37.55625 
L 205.803125 -37.55625 
L 205.453125 -37.55625 
L 205.103125 -37.55625 
L 204.753125 -37.55625 
L 204.403125 -37.55625 
L 204.053125 -37.55625 
L 203.703125 -37.55625 
L 203.353125 -37.55625 
L 203.003125 -37.55625 
L 202.653125 -37.55625 
L 202.303125 -37.55625 
L 201.953125 -37.55625 
L 201.603125 -37.55625 
L 201.253125 -37.55625 
L 200.903125 -37.55625 
L 200.553125 -37.55625 
L 200.203125 -37.55625 
L 199.853125 -37.55625 
L 199.503125 -37.55625 
L 199.153125 -37.55625 
L 198.803125 -37.55625 
L 198.453125 -37.55625 
L 198.103125 -37.55625 
L 197.753125 -37.55625 
L 197.403125 -37.55625 
L 197.053125 -37.55625 
L 196.703125 -37.55625 
L 196.353125 -37.55625 
L 196.003125 -37.55625 
L 195.653125 -37.55625 
L 195.303125 -37.55625 
L 194.953125 -37.55625 
L 194.603125 -37.55625 
L 194.253125 -37.55625 
L 193.903125 -37.55625 
L 193.553125 -37.55625 
L 193.203125 -37.55625 
L 192.853125 -37.55625 
L 192.503125 -37.55625 
L 192.153125 -37.55625 
L 191.803125 -37.55625 
L 191.453125 -37.55625 
L 191.103125 -37.55625 
L 190.753125 -37.55625 
L 190.403125 -37.55625 
L 190.053125 -37.55625 
L 189.703125 -37.55625 
L 189.353125 -37.55625 
L 189.003125 -37.55625 
L 188.653125 -37.55625 
L 188.303125 -37.55625 
L 187.953125 -37.55625 
L 187.603125 -37.55625 
L 187.253125 -37.55625 
L 186.903125 -37.55625 
L 186.553125 -37.55625 
L 186.203125 -37.55625 
L 185.853125 -37.55625 
L 185.503125 -37.55625 
L 185.153125 -37.55625 
L 184.803125 -37.55625 
L 184.453125 -37.55625 
L 184.103125 -37.55625 
L 183.753125 -37.55625 
L 183.403125 -37.55625 
L 183.053125 -37.55625 
L 182.703125 -37.55625 
L 182.353125 -37.55625 
L 182.003125 -37.55625 
L 181.653125 -37.55625 
L 181.303125 -37.55625 
L 180.953125 -37.55625 
L 180.603125 -37.55625 
L 180.253125 -37.55625 
L 179.903125 -37.55625 
L 179.553125 -37.55625 
L 179.203125 -37.55625 
L 178.853125 -37.55625 
L 178.503125 -37.55625 
L 178.153125 -37.55625 
L 177.803125 -37.55625 
L 177.453125 -37.55625 
L 177.103125 -37.55625 
L 176.753125 -37.55625 
L 176.403125 -37.55625 
L 176.053125 -37.55625 
L 175.703125 -37.55625 
L 175.353125 -37.55625 
L 175.003125 -37.55625 
L 174.653125 -37.55625 
L 174.303125 -37.55625 
L 173.953125 -37.55625 
L 173.603125 -37.55625 
L 173.253125 -37.55625 
L 172.903125 -37.55625 
L 172.553125 -37.55625 
L 172.203125 -37.55625 
L 171.853125 -37.55625 
L 171.503125 -37.55625 
L 171.153125 -37.55625 
L 170.803125 -37.55625 
L 170.453125 -37.55625 
L 170.103125 -37.55625 
L 169.753125 -37.55625 
L 169.403125 -37.55625 
L 169.053125 -37.55625 
L 168.703125 -37.55625 
L 168.353125 -37.55625 
L 168.003125 -37.55625 
L 167.653125 -37.55625 
L 167.303125 -37.55625 
L 166.953125 -37.55625 
L 166.603125 -37.55625 
L 166.253125 -37.55625 
L 165.903125 -37.55625 
L 165.553125 -37.55625 
L 165.203125 -37.55625 
L 164.853125 -37.55625 
L 164.503125 -37.55625 
L 164.153125 -37.55625 
L 163.803125 -37.55625 
L 163.453125 -37.55625 
L 163.103125 -37.55625 
L 162.753125 -37.55625 
L 162.403125 -37.55625 
L 162.053125 -37.55625 
L 161.703125 -37.55625 
L 161.353125 -37.55625 
L 161.003125 -37.55625 
L 160.653125 -37.55625 
L 160.303125 -37.55625 
L 159.953125 -37.55625 
L 159.603125 -37.55625 
L 159.253125 -37.55625 
L 158.903125 -37.55625 
L 158.553125 -37.55625 
L 158.203125 -37.55625 
L 157.853125 -37.55625 
L 157.503125 -37.55625 
L 157.153125 -37.55625 
L 156.803125 -37.55625 
L 156.453125 -37.55625 
L 156.103125 -37.55625 
L 155.753125 -37.55625 
L 155.403125 -37.55625 
L 155.053125 -37.55625 
L 154.703125 -37.55625 
L 154.353125 -37.55625 
L 154.003125 -37.55625 
L 153.653125 -37.55625 
L 153.303125 -37.55625 
L 152.953125 -37.55625 
L 152.603125 -37.55625 
L 152.253125 -37.55625 
L 151.903125 -37.55625 
L 151.553125 -37.55625 
L 151.203125 -37.55625 
L 150.853125 -37.55625 
L 150.503125 -37.55625 
L 150.153125 -37.55625 
L 149.803125 -37.55625 
L 149.453125 -37.55625 
L 149.103125 -37.55625 
L 148.753125 -37.55625 
L 148.403125 -37.55625 
L 148.053125 -37.55625 
L 147.703125 -37.55625 
L 147.353125 -37.55625 
L 147.003125 -37.55625 
L 146.653125 -37.55625 
L 146.303125 -37.55625 
L 145.953125 -37.55625 
L 145.603125 -37.55625 
L 145.253125 -37.55625 
L 144.903125 -37.55625 
L 144.553125 -37.55625 
L 144.203125 -37.55625 
L 143.853125 -37.55625 
L 143.503125 -37.55625 
L 143.153125 -37.55625 
L 142.803125 -37.55625 
L 142.453125 -37.55625 
L 142.103125 -37.55625 
L 141.753125 -37.55625 
L 141.403125 -37.55625 
L 141.053125 -37.55625 
L 140.703125 -37.55625 
L 140.353125 -37.55625 
L 140.003125 -37.55625 
L 139.653125 -37.55625 
L 139.303125 -37.55625 
L 138.953125 -37.55625 
L 138.603125 -37.55625 
L 138.253125 -37.55625 
L 137.903125 -37.55625 
L 137.553125 -37.55625 
L 137.203125 -37.55625 
L 136.853125 -37.55625 
L 136.503125 -37.55625 
L 136.153125 -37.55625 
L 135.803125 -37.55625 
L 135.453125 -37.55625 
L 135.103125 -37.55625 
L 134.753125 -37.55625 
L 134.403125 -37.55625 
L 134.053125 -37.55625 
L 133.703125 -37.55625 
L 133.353125 -37.55625 
L 133.003125 -37.55625 
L 132.653125 -37.55625 
L 132.303125 -37.55625 
L 131.953125 -37.55625 
L 131.603125 -37.55625 
L 131.253125 -37.55625 
L 130.903125 -37.55625 
L 130.553125 -37.55625 
L 130.203125 -37.55625 
L 129.853125 -37.55625 
L 129.503125 -37.55625 
L 129.153125 -37.55625 
L 128.803125 -37.55625 
L 128.453125 -37.55625 
L 128.103125 -37.55625 
L 127.753125 -37.55625 
L 127.403125 -37.55625 
L 127.053125 -37.55625 
L 126.703125 -37.55625 
L 126.353125 -37.55625 
L 126.003125 -37.55625 
L 125.653125 -37.55625 
L 125.303125 -37.55625 
L 124.953125 -37.55625 
L 124.603125 -37.55625 
L 124.253125 -37.55625 
L 123.903125 -37.55625 
L 123.553125 -37.55625 
L 123.203125 -37.55625 
L 122.853125 -37.55625 
L 122.503125 -37.55625 
L 122.153125 -37.55625 
L 121.803125 -37.55625 
L 121.453125 -37.55625 
L 121.103125 -37.55625 
L 120.753125 -37.55625 
L 120.403125 -37.55625 
L 120.053125 -37.55625 
L 119.703125 -37.55625 
L 119.353125 -37.55625 
L 119.003125 -37.55625 
L 118.653125 -37.55625 
L 118.303125 -37.55625 
L 117.953125 -37.55625 
L 117.603125 -37.55625 
L 117.253125 -37.55625 
L 116.903125 -37.55625 
L 116.553125 -37.55625 
L 116.203125 -37.55625 
L 115.853125 -37.55625 
L 115.503125 -37.55625 
L 115.153125 -37.55625 
L 114.803125 -37.55625 
L 114.453125 -37.55625 
L 114.103125 -37.55625 
L 113.753125 -37.55625 
L 113.403125 -37.55625 
L 113.053125 -37.55625 
L 112.703125 -37.55625 
L 112.353125 -37.55625 
L 112.003125 -37.55625 
L 111.653125 -37.55625 
L 111.303125 -37.55625 
L 110.953125 -37.55625 
L 110.603125 -37.55625 
L 110.253125 -37.55625 
L 109.903125 -37.55625 
L 109.553125 -37.55625 
L 109.203125 -37.55625 
L 108.853125 -37.55625 
L 108.503125 -37.55625 
L 108.153125 -37.55625 
L 107.803125 -37.55625 
L 107.453125 -37.55625 
L 107.103125 -37.55625 
L 106.753125 -37.55625 
L 106.403125 -37.55625 
L 106.053125 -37.55625 
L 105.703125 -37.55625 
L 105.353125 -37.55625 
L 105.003125 -37.55625 
L 104.653125 -37.55625 
L 104.303125 -37.55625 
L 103.953125 -37.55625 
L 103.603125 -37.55625 
L 103.253125 -37.55625 
L 102.903125 -37.55625 
L 102.553125 -37.55625 
L 102.203125 -37.55625 
L 101.853125 -37.55625 
L 101.503125 -37.55625 
L 101.153125 -37.55625 
L 100.803125 -37.55625 
L 100.453125 -37.55625 
L 100.103125 -37.55625 
L 99.753125 -37.55625 
L 99.403125 -37.55625 
L 99.053125 -37.55625 
L 98.703125 -37.55625 
L 98.353125 -37.55625 
L 98.003125 -37.55625 
L 97.653125 -37.55625 
L 97.303125 -37.55625 
L 96.953125 -37.55625 
L 96.603125 -37.55625 
L 96.253125 -37.55625 
L 95.903125 -37.55625 
L 95.553125 -37.55625 
L 95.203125 -37.55625 
L 94.853125 -37.55625 
L 94.503125 -37.55625 
L 94.153125 -37.55625 
L 93.803125 -37.55625 
L 93.453125 -37.55625 
L 93.103125 -37.55625 
L 92.753125 -37.55625 
L 92.403125 -37.55625 
L 92.053125 -37.55625 
L 91.703125 -37.55625 
L 91.353125 -37.55625 
L 91.003125 -37.55625 
L 90.653125 -37.55625 
L 90.303125 -37.55625 
L 89.953125 -37.55625 
L 89.603125 -37.55625 
L 89.253125 -37.55625 
L 88.903125 -37.55625 
L 88.553125 -37.55625 
L 88.203125 -37.55625 
L 87.853125 -37.55625 
L 87.503125 -37.55625 
L 87.153125 -37.55625 
L 86.803125 -37.55625 
L 86.453125 -37.55625 
L 86.103125 -37.55625 
L 85.753125 -37.55625 
L 85.403125 -37.55625 
L 85.053125 -37.55625 
L 84.703125 -37.55625 
L 84.353125 -37.55625 
L 84.003125 -37.55625 
L 83.653125 -37.55625 
L 83.303125 -38.874841 
L 82.953125 -39.301412 
L 82.603125 -39.641686 
L 82.253125 -40.407305 
L 81.903125 -38.196943 
L 81.553125 -38.196943 
L 81.203125 -38.874841 
L 80.853125 -38.83128 
L 80.503125 -38.83128 
L 80.153125 -37.55625 
L 79.803125 -37.613271 
L 79.453125 -37.55625 
L 79.103125 -37.55625 
L 78.753125 -37.55625 
L 78.403125 -37.55625 
L 78.053125 -39.301412 
L 77.703125 -39.301412 
L 77.353125 -39.266883 
L 77.003125 -38.874841 
L 76.653125 -40.407305 
L 76.303125 -41.024708 
L 75.953125 -41.707448 
L 75.603125 -41.563699 
L 75.253125 -40.666707 
L 74.903125 -40.407305 
L 74.553125 -41.024708 
L 74.203125 -40.407305 
L 73.853125 -40.62693 
L 73.503125 -40.407305 
L 73.153125 -40.666707 
L 72.803125 -41.042975 
L 72.453125 -40.407305 
L 72.103125 -40.429267 
L 71.753125 -42.153437 
L 71.403125 -42.153437 
L 71.053125 -42.825562 
L 70.703125 -42.813335 
L 70.353125 -42.153437 
L 70.003125 -42.153437 
L 69.653125 -42.813335 
L 69.303125 -42.153437 
L 68.953125 -42.153437 
L 68.603125 -42.153437 
L 68.253125 -42.466654 
L 67.903125 -42.466654 
L 67.553125 -42.813335 
L 67.203125 -42.180907 
L 66.853125 -42.153437 
L 66.503125 -42.825562 
L 66.153125 -43.172176 
L 65.803125 -42.825562 
L 65.453125 -42.935609 
L 65.103125 -42.153437 
L 64.753125 -42.428134 
L 64.403125 -42.454136 
L 64.053125 -42.813335 
L 63.703125 -42.935609 
L 63.353125 -42.935609 
L 63.003125 -42.935609 
L 62.653125 -43.172176 
L 62.303125 -43.638765 
L 61.953125 -43.172176 
L 61.603125 -43.183638 
L 61.253125 -43.183638 
L 60.903125 -43.744762 
L 60.553125 -43.931402 
L 60.203125 -43.744762 
L 59.853125 -43.931402 
L 59.503125 -44.422499 
L 59.153125 -43.617675 
L 58.803125 -43.931402 
L 58.453125 -44.525842 
L 58.103125 -44.516561 
L 57.753125 -44.516561 
L 57.403125 -45.751689 
L 57.053125 -46.116983 
L 56.703125 -46.697426 
L 56.353125 -46.109414 
L 56.003125 -46.116983 
L 55.653125 -46.838611 
L 55.303125 -46.704513 
L 54.953125 -47.114727 
L 54.603125 -46.859395 
L 54.253125 -46.84559 
L 53.903125 -47.644311 
L 53.553125 -47.835873 
L 53.203125 -48.042405 
L 52.853125 -47.835873 
L 52.503125 -47.835873 
L 52.153125 -47.967853 
L 51.803125 -47.967853 
L 51.453125 -48.023931 
L 51.103125 -47.708567 
L 50.753125 -48.390257 
L 50.403125 -48.042405 
L 50.053125 -47.835873 
L 49.703125 -47.835873 
L 49.353125 -47.961623 
L 49.003125 -47.961623 
L 48.653125 -47.336475 
L 48.303125 -47.514555 
L 47.953125 -47.336475 
L 47.603125 -47.114727 
L 47.253125 -46.838611 
L 46.903125 -46.768289 
L 46.553125 -46.510145 
L 46.203125 -45.720428 
L 45.853125 -45.720428 
L 45.503125 -45.311957 
L 45.153125 -44.609369 
L 44.803125 -44.525842 
L 44.453125 -43.931402 
L 44.103125 -43.520252 
L 43.753125 -42.935609 
L 43.403125 -42.428134 
L 43.053125 -42.00974 
L 42.703125 -41.381341 
L 42.353125 -41.024708 
L 42.003125 -40.407305 
L 41.653125 -39.641686 
L 41.303125 -38.83128 
L 40.953125 -38.126461 
L 40.603125 -37.55625 
z
" id="m1f52034ba1" style="stroke:#909090;"/>
    </defs>
    <g clip-path="url(#p5b8fd23658)">
     <use style="fill:#909090;stroke:#909090;" x="0" xlink:href="#m1f52034ba1" y="250.155469"/>
    </g>
   </g>
   <g id="PolyCollection_2">
    <defs>
     <path d="M 40.603125 -37.55625 
L 40.603125 -37.55625 
L 40.953125 -38.126461 
L 41.303125 -38.126461 
L 41.653125 -38.126461 
L 42.003125 -38.126461 
L 42.353125 -38.126461 
L 42.703125 -38.83128 
L 43.053125 -38.83128 
L 43.403125 -38.83128 
L 43.753125 -38.83128 
L 44.103125 -38.83128 
L 44.453125 -38.83128 
L 44.803125 -38.83128 
L 45.153125 -39.266883 
L 45.503125 -39.266883 
L 45.853125 -39.266883 
L 46.203125 -39.266883 
L 46.553125 -39.266883 
L 46.903125 -39.266883 
L 47.253125 -39.266883 
L 47.603125 -39.266883 
L 47.953125 -39.266883 
L 48.303125 -39.266883 
L 48.653125 -38.83128 
L 49.003125 -38.83128 
L 49.353125 -38.83128 
L 49.703125 -38.83128 
L 50.053125 -38.83128 
L 50.403125 -37.55625 
L 50.753125 -37.55625 
L 51.103125 -37.55625 
L 51.453125 -37.55625 
L 51.803125 -37.55625 
L 52.153125 -37.55625 
L 52.503125 -37.55625 
L 52.853125 -37.55625 
L 53.203125 -37.55625 
L 53.553125 -37.55625 
L 53.903125 -37.55625 
L 54.253125 -37.55625 
L 54.603125 -37.55625 
L 54.953125 -37.55625 
L 55.303125 -37.55625 
L 55.653125 -37.55625 
L 56.003125 -37.55625 
L 56.353125 -37.55625 
L 56.703125 -37.55625 
L 57.053125 -37.55625 
L 57.403125 -37.55625 
L 57.753125 -37.55625 
L 58.103125 -37.55625 
L 58.453125 -37.55625 
L 58.803125 -37.55625 
L 59.153125 -37.55625 
L 59.503125 -37.55625 
L 59.853125 -37.55625 
L 60.203125 -37.55625 
L 60.553125 -37.55625 
L 60.903125 -37.55625 
L 61.253125 -37.55625 
L 61.603125 -37.55625 
L 61.953125 -37.55625 
L 62.303125 -37.55625 
L 62.653125 -37.55625 
L 63.003125 -37.55625 
L 63.353125 -37.55625 
L 63.703125 -37.55625 
L 64.053125 -37.55625 
L 64.403125 -37.55625 
L 64.753125 -37.55625 
L 65.103125 -37.55625 
L 65.453125 -37.55625 
L 65.803125 -37.55625 
L 66.153125 -37.55625 
L 66.503125 -37.55625 
L 66.853125 -37.55625 
L 67.203125 -37.55625 
L 67.553125 -37.55625 
L 67.903125 -37.55625 
L 68.253125 -37.55625 
L 68.603125 -37.55625 
L 68.953125 -37.55625 
L 69.303125 -37.55625 
L 69.653125 -37.55625 
L 70.003125 -37.55625 
L 70.353125 -37.55625 
L 70.703125 -37.55625 
L 71.053125 -37.55625 
L 71.403125 -37.55625 
L 71.753125 -37.55625 
L 72.103125 -37.55625 
L 72.453125 -37.55625 
L 72.803125 -37.55625 
L 73.153125 -37.55625 
L 73.503125 -37.55625 
L 73.853125 -37.55625 
L 74.203125 -37.55625 
L 74.553125 -37.55625 
L 74.903125 -37.55625 
L 75.253125 -37.55625 
L 75.603125 -37.55625 
L 75.953125 -37.55625 
L 76.303125 -37.55625 
L 76.653125 -37.55625 
L 77.003125 -37.55625 
L 77.353125 -37.55625 
L 77.703125 -37.55625 
L 78.053125 -37.55625 
L 78.403125 -37.55625 
L 78.753125 -37.55625 
L 79.103125 -37.55625 
L 79.453125 -37.55625 
L 79.803125 -37.55625 
L 80.153125 -37.55625 
L 80.503125 -37.55625 
L 80.853125 -37.55625 
L 81.203125 -37.55625 
L 81.553125 -37.55625 
L 81.903125 -37.55625 
L 82.253125 -37.55625 
L 82.603125 -37.55625 
L 82.953125 -37.55625 
L 83.303125 -37.55625 
L 83.653125 -37.55625 
L 84.003125 -37.55625 
L 84.353125 -37.55625 
L 84.703125 -37.55625 
L 85.053125 -37.55625 
L 85.403125 -37.55625 
L 85.753125 -37.55625 
L 86.103125 -37.55625 
L 86.453125 -37.55625 
L 86.803125 -37.55625 
L 87.153125 -37.55625 
L 87.503125 -37.55625 
L 87.853125 -37.55625 
L 88.203125 -37.55625 
L 88.553125 -37.55625 
L 88.903125 -37.55625 
L 89.253125 -37.55625 
L 89.603125 -37.55625 
L 89.953125 -37.55625 
L 90.303125 -37.55625 
L 90.653125 -37.55625 
L 91.003125 -37.55625 
L 91.353125 -37.55625 
L 91.703125 -37.55625 
L 92.053125 -37.55625 
L 92.403125 -37.55625 
L 92.753125 -37.55625 
L 93.103125 -37.55625 
L 93.453125 -37.55625 
L 93.803125 -37.55625 
L 94.153125 -37.55625 
L 94.503125 -37.55625 
L 94.853125 -37.55625 
L 95.203125 -37.55625 
L 95.553125 -37.55625 
L 95.903125 -37.55625 
L 96.253125 -37.55625 
L 96.603125 -37.55625 
L 96.953125 -37.55625 
L 97.303125 -37.55625 
L 97.653125 -37.55625 
L 98.003125 -37.55625 
L 98.353125 -37.55625 
L 98.703125 -37.55625 
L 99.053125 -37.55625 
L 99.403125 -37.55625 
L 99.753125 -37.55625 
L 100.103125 -37.55625 
L 100.453125 -37.55625 
L 100.803125 -37.55625 
L 101.153125 -37.55625 
L 101.503125 -37.55625 
L 101.853125 -37.55625 
L 102.203125 -37.55625 
L 102.553125 -37.55625 
L 102.903125 -37.55625 
L 103.253125 -37.55625 
L 103.603125 -37.55625 
L 103.953125 -37.55625 
L 104.303125 -37.55625 
L 104.653125 -37.55625 
L 105.003125 -37.55625 
L 105.353125 -37.55625 
L 105.703125 -37.55625 
L 106.053125 -37.55625 
L 106.403125 -37.55625 
L 106.753125 -37.55625 
L 107.103125 -37.55625 
L 107.453125 -37.55625 
L 107.803125 -37.55625 
L 108.153125 -37.55625 
L 108.503125 -37.55625 
L 108.853125 -37.55625 
L 109.203125 -37.55625 
L 109.553125 -37.55625 
L 109.903125 -37.55625 
L 110.253125 -37.55625 
L 110.603125 -37.55625 
L 110.953125 -37.55625 
L 111.303125 -37.55625 
L 111.653125 -37.55625 
L 112.003125 -37.55625 
L 112.353125 -37.55625 
L 112.703125 -37.55625 
L 113.053125 -37.55625 
L 113.403125 -37.55625 
L 113.753125 -37.55625 
L 114.103125 -37.55625 
L 114.453125 -37.55625 
L 114.803125 -37.55625 
L 115.153125 -37.55625 
L 115.503125 -37.55625 
L 115.853125 -37.55625 
L 116.203125 -37.55625 
L 116.553125 -37.55625 
L 116.903125 -37.55625 
L 117.253125 -37.55625 
L 117.603125 -37.55625 
L 117.953125 -37.55625 
L 118.303125 -37.55625 
L 118.653125 -37.55625 
L 119.003125 -37.55625 
L 119.353125 -37.55625 
L 119.703125 -37.55625 
L 120.053125 -37.55625 
L 120.403125 -37.55625 
L 120.753125 -37.55625 
L 121.103125 -37.55625 
L 121.453125 -37.55625 
L 121.803125 -37.55625 
L 122.153125 -37.55625 
L 122.503125 -37.55625 
L 122.853125 -37.55625 
L 123.203125 -37.55625 
L 123.553125 -37.55625 
L 123.903125 -37.55625 
L 124.253125 -37.55625 
L 124.603125 -37.55625 
L 124.953125 -37.55625 
L 125.303125 -37.55625 
L 125.653125 -37.55625 
L 126.003125 -37.55625 
L 126.353125 -37.55625 
L 126.703125 -37.55625 
L 127.053125 -37.55625 
L 127.403125 -37.55625 
L 127.753125 -37.55625 
L 128.103125 -37.55625 
L 128.453125 -37.55625 
L 128.803125 -37.55625 
L 129.153125 -37.55625 
L 129.503125 -37.55625 
L 129.853125 -37.55625 
L 130.203125 -37.55625 
L 130.553125 -37.55625 
L 130.903125 -37.55625 
L 131.253125 -37.55625 
L 131.603125 -37.55625 
L 131.953125 -37.55625 
L 132.303125 -37.55625 
L 132.653125 -37.55625 
L 133.003125 -37.55625 
L 133.353125 -37.55625 
L 133.703125 -37.55625 
L 134.053125 -37.55625 
L 134.403125 -37.55625 
L 134.753125 -37.55625 
L 135.103125 -37.55625 
L 135.453125 -37.55625 
L 135.803125 -37.55625 
L 136.153125 -37.55625 
L 136.503125 -37.55625 
L 136.853125 -37.55625 
L 137.203125 -37.55625 
L 137.553125 -37.55625 
L 137.903125 -37.55625 
L 138.253125 -37.55625 
L 138.603125 -37.55625 
L 138.953125 -37.55625 
L 139.303125 -37.55625 
L 139.653125 -37.55625 
L 140.003125 -37.55625 
L 140.353125 -37.55625 
L 140.703125 -37.55625 
L 141.053125 -37.55625 
L 141.403125 -37.55625 
L 141.753125 -37.55625 
L 142.103125 -37.55625 
L 142.453125 -37.55625 
L 142.803125 -37.55625 
L 143.153125 -37.55625 
L 143.503125 -37.55625 
L 143.853125 -37.55625 
L 144.203125 -37.55625 
L 144.553125 -37.55625 
L 144.903125 -37.55625 
L 145.253125 -37.55625 
L 145.603125 -37.55625 
L 145.953125 -37.55625 
L 146.303125 -37.55625 
L 146.653125 -37.55625 
L 147.003125 -37.55625 
L 147.353125 -37.55625 
L 147.703125 -37.55625 
L 148.053125 -37.55625 
L 148.403125 -37.55625 
L 148.753125 -37.55625 
L 149.103125 -37.55625 
L 149.453125 -37.55625 
L 149.803125 -37.55625 
L 150.153125 -37.55625 
L 150.503125 -37.55625 
L 150.853125 -37.55625 
L 151.203125 -37.55625 
L 151.553125 -37.55625 
L 151.903125 -37.55625 
L 152.253125 -37.55625 
L 152.603125 -37.55625 
L 152.953125 -37.55625 
L 153.303125 -37.55625 
L 153.653125 -37.55625 
L 154.003125 -37.55625 
L 154.353125 -37.55625 
L 154.703125 -37.55625 
L 155.053125 -37.55625 
L 155.403125 -37.55625 
L 155.753125 -37.55625 
L 156.103125 -37.55625 
L 156.453125 -37.55625 
L 156.803125 -37.55625 
L 157.153125 -37.55625 
L 157.503125 -37.55625 
L 157.853125 -37.55625 
L 158.203125 -37.55625 
L 158.553125 -37.55625 
L 158.903125 -37.55625 
L 159.253125 -37.55625 
L 159.603125 -37.55625 
L 159.953125 -37.55625 
L 160.303125 -37.55625 
L 160.653125 -37.55625 
L 161.003125 -37.55625 
L 161.353125 -37.55625 
L 161.703125 -37.55625 
L 162.053125 -37.55625 
L 162.403125 -37.55625 
L 162.753125 -37.55625 
L 163.103125 -37.55625 
L 163.453125 -37.55625 
L 163.803125 -37.55625 
L 164.153125 -37.55625 
L 164.503125 -37.55625 
L 164.853125 -37.55625 
L 165.203125 -37.55625 
L 165.553125 -37.55625 
L 165.903125 -37.55625 
L 166.253125 -37.55625 
L 166.603125 -37.55625 
L 166.953125 -37.55625 
L 167.303125 -37.55625 
L 167.653125 -37.55625 
L 168.003125 -37.55625 
L 168.353125 -37.55625 
L 168.703125 -37.55625 
L 169.053125 -37.55625 
L 169.403125 -37.55625 
L 169.753125 -37.55625 
L 170.103125 -37.55625 
L 170.453125 -37.55625 
L 170.803125 -37.55625 
L 171.153125 -37.55625 
L 171.503125 -37.55625 
L 171.853125 -37.55625 
L 172.203125 -37.55625 
L 172.553125 -37.55625 
L 172.903125 -37.55625 
L 173.253125 -37.55625 
L 173.603125 -37.55625 
L 173.953125 -37.55625 
L 174.303125 -37.55625 
L 174.653125 -37.55625 
L 175.003125 -37.55625 
L 175.353125 -37.55625 
L 175.703125 -37.55625 
L 176.053125 -37.55625 
L 176.403125 -37.55625 
L 176.753125 -37.55625 
L 177.103125 -37.55625 
L 177.453125 -37.55625 
L 177.803125 -37.55625 
L 178.153125 -37.55625 
L 178.503125 -37.55625 
L 178.853125 -37.55625 
L 179.203125 -37.55625 
L 179.553125 -37.55625 
L 179.903125 -37.55625 
L 180.253125 -37.55625 
L 180.603125 -37.55625 
L 180.953125 -37.55625 
L 181.303125 -37.55625 
L 181.653125 -37.55625 
L 182.003125 -37.55625 
L 182.353125 -37.55625 
L 182.703125 -37.55625 
L 183.053125 -37.55625 
L 183.403125 -37.55625 
L 183.753125 -37.55625 
L 184.103125 -37.55625 
L 184.453125 -37.55625 
L 184.803125 -37.55625 
L 185.153125 -37.55625 
L 185.503125 -37.55625 
L 185.853125 -37.55625 
L 186.203125 -37.55625 
L 186.553125 -37.55625 
L 186.903125 -37.55625 
L 187.253125 -37.55625 
L 187.603125 -37.55625 
L 187.953125 -37.55625 
L 188.303125 -37.55625 
L 188.653125 -37.55625 
L 189.003125 -37.55625 
L 189.353125 -37.55625 
L 189.703125 -37.55625 
L 190.053125 -37.55625 
L 190.403125 -37.55625 
L 190.753125 -37.55625 
L 191.103125 -37.55625 
L 191.453125 -37.55625 
L 191.803125 -37.55625 
L 192.153125 -37.55625 
L 192.503125 -37.55625 
L 192.853125 -37.55625 
L 193.203125 -37.55625 
L 193.553125 -37.55625 
L 193.903125 -37.55625 
L 194.253125 -37.55625 
L 194.603125 -37.55625 
L 194.953125 -37.55625 
L 195.303125 -37.55625 
L 195.653125 -37.55625 
L 196.003125 -37.55625 
L 196.353125 -37.55625 
L 196.703125 -37.55625 
L 197.053125 -37.55625 
L 197.403125 -37.55625 
L 197.753125 -37.55625 
L 198.103125 -37.55625 
L 198.453125 -37.55625 
L 198.803125 -37.55625 
L 199.153125 -37.55625 
L 199.503125 -37.55625 
L 199.853125 -37.55625 
L 200.203125 -37.55625 
L 200.553125 -37.55625 
L 200.903125 -37.55625 
L 201.253125 -37.55625 
L 201.603125 -37.55625 
L 201.953125 -37.55625 
L 202.303125 -37.55625 
L 202.653125 -37.55625 
L 203.003125 -37.55625 
L 203.353125 -37.55625 
L 203.703125 -37.55625 
L 204.053125 -37.55625 
L 204.403125 -37.55625 
L 204.753125 -37.55625 
L 205.103125 -37.55625 
L 205.453125 -37.55625 
L 205.803125 -37.55625 
L 206.153125 -37.55625 
L 206.503125 -37.55625 
L 206.853125 -37.55625 
L 207.203125 -37.55625 
L 207.553125 -37.55625 
L 207.903125 -37.55625 
L 208.253125 -37.55625 
L 208.603125 -37.55625 
L 208.953125 -37.55625 
L 209.303125 -37.55625 
L 209.653125 -37.55625 
L 210.003125 -37.55625 
L 210.353125 -37.55625 
L 210.703125 -37.55625 
L 211.053125 -37.55625 
L 211.403125 -37.55625 
L 211.753125 -37.55625 
L 212.103125 -37.55625 
L 212.453125 -37.55625 
L 212.803125 -37.55625 
L 213.153125 -37.55625 
L 213.503125 -37.55625 
L 213.853125 -37.55625 
L 214.203125 -37.55625 
L 214.553125 -37.55625 
L 214.903125 -37.55625 
L 215.253125 -37.55625 
L 215.603125 -37.55625 
L 215.953125 -37.55625 
L 216.303125 -37.55625 
L 216.653125 -37.55625 
L 217.003125 -37.55625 
L 217.353125 -37.55625 
L 217.703125 -37.55625 
L 218.053125 -37.55625 
L 218.403125 -37.55625 
L 218.753125 -37.55625 
L 219.103125 -37.55625 
L 219.453125 -37.55625 
L 219.803125 -37.55625 
L 220.153125 -37.55625 
L 220.503125 -37.55625 
L 220.853125 -37.55625 
L 221.203125 -37.55625 
L 221.553125 -37.55625 
L 221.903125 -37.55625 
L 222.253125 -37.55625 
L 222.603125 -37.55625 
L 222.953125 -37.55625 
L 223.303125 -37.55625 
L 223.653125 -37.55625 
L 224.003125 -37.55625 
L 224.353125 -37.55625 
L 224.703125 -37.55625 
L 225.053125 -37.55625 
L 225.403125 -37.55625 
L 225.753125 -37.55625 
L 226.103125 -37.55625 
L 226.453125 -37.55625 
L 226.803125 -37.55625 
L 227.153125 -37.55625 
L 227.503125 -37.55625 
L 227.853125 -37.55625 
L 228.203125 -37.55625 
L 228.553125 -37.55625 
L 228.903125 -37.55625 
L 229.253125 -37.55625 
L 229.603125 -37.55625 
L 229.953125 -37.55625 
L 230.303125 -37.55625 
L 230.653125 -37.55625 
L 231.003125 -37.55625 
L 231.353125 -37.55625 
L 231.703125 -37.55625 
L 232.053125 -37.55625 
L 232.403125 -37.55625 
L 232.753125 -37.55625 
L 233.103125 -37.55625 
L 233.453125 -37.55625 
L 233.803125 -37.55625 
L 234.153125 -37.55625 
L 234.503125 -37.55625 
L 234.853125 -37.55625 
L 235.203125 -37.55625 
L 235.553125 -37.55625 
L 235.903125 -37.55625 
L 236.253125 -37.55625 
L 236.603125 -37.55625 
L 236.953125 -37.55625 
L 237.303125 -37.55625 
L 237.653125 -37.55625 
L 238.003125 -37.55625 
L 238.353125 -37.55625 
L 238.703125 -37.55625 
L 239.053125 -37.55625 
L 239.403125 -37.55625 
L 239.753125 -37.55625 
L 240.103125 -37.55625 
L 240.453125 -37.55625 
L 240.803125 -37.55625 
L 241.153125 -37.55625 
L 241.503125 -37.55625 
L 241.853125 -37.55625 
L 242.203125 -37.55625 
L 242.203125 -37.55625 
L 242.203125 -37.55625 
L 241.853125 -37.55625 
L 241.503125 -37.55625 
L 241.153125 -37.55625 
L 240.803125 -37.55625 
L 240.453125 -37.55625 
L 240.103125 -37.55625 
L 239.753125 -37.55625 
L 239.403125 -37.55625 
L 239.053125 -37.55625 
L 238.703125 -37.55625 
L 238.353125 -37.55625 
L 238.003125 -37.55625 
L 237.653125 -37.55625 
L 237.303125 -37.55625 
L 236.953125 -37.55625 
L 236.603125 -37.55625 
L 236.253125 -37.55625 
L 235.903125 -37.55625 
L 235.553125 -37.55625 
L 235.203125 -37.55625 
L 234.853125 -37.55625 
L 234.503125 -37.55625 
L 234.153125 -37.55625 
L 233.803125 -37.55625 
L 233.453125 -37.55625 
L 233.103125 -37.55625 
L 232.753125 -37.55625 
L 232.403125 -37.55625 
L 232.053125 -37.55625 
L 231.703125 -37.55625 
L 231.353125 -37.55625 
L 231.003125 -37.55625 
L 230.653125 -37.55625 
L 230.303125 -37.55625 
L 229.953125 -37.55625 
L 229.603125 -37.55625 
L 229.253125 -37.55625 
L 228.903125 -37.55625 
L 228.553125 -37.55625 
L 228.203125 -37.55625 
L 227.853125 -37.55625 
L 227.503125 -37.55625 
L 227.153125 -37.55625 
L 226.803125 -37.55625 
L 226.453125 -37.55625 
L 226.103125 -37.55625 
L 225.753125 -37.55625 
L 225.403125 -37.55625 
L 225.053125 -37.55625 
L 224.703125 -37.55625 
L 224.353125 -37.55625 
L 224.003125 -37.55625 
L 223.653125 -37.55625 
L 223.303125 -37.55625 
L 222.953125 -37.55625 
L 222.603125 -37.55625 
L 222.253125 -37.55625 
L 221.903125 -37.55625 
L 221.553125 -37.55625 
L 221.203125 -37.55625 
L 220.853125 -37.55625 
L 220.503125 -37.55625 
L 220.153125 -37.55625 
L 219.803125 -37.55625 
L 219.453125 -37.55625 
L 219.103125 -37.55625 
L 218.753125 -37.55625 
L 218.403125 -37.55625 
L 218.053125 -37.55625 
L 217.703125 -37.55625 
L 217.353125 -37.55625 
L 217.003125 -37.55625 
L 216.653125 -37.55625 
L 216.303125 -37.55625 
L 215.953125 -37.55625 
L 215.603125 -37.55625 
L 215.253125 -37.55625 
L 214.903125 -37.55625 
L 214.553125 -37.55625 
L 214.203125 -37.55625 
L 213.853125 -37.55625 
L 213.503125 -37.55625 
L 213.153125 -37.55625 
L 212.803125 -37.55625 
L 212.453125 -37.55625 
L 212.103125 -37.55625 
L 211.753125 -37.55625 
L 211.403125 -37.55625 
L 211.053125 -37.55625 
L 210.703125 -37.55625 
L 210.353125 -37.55625 
L 210.003125 -37.55625 
L 209.653125 -37.55625 
L 209.303125 -37.55625 
L 208.953125 -37.55625 
L 208.603125 -37.55625 
L 208.253125 -37.55625 
L 207.903125 -37.55625 
L 207.553125 -37.55625 
L 207.203125 -37.55625 
L 206.853125 -37.55625 
L 206.503125 -37.55625 
L 206.153125 -37.55625 
L 205.803125 -37.55625 
L 205.453125 -37.55625 
L 205.103125 -37.55625 
L 204.753125 -37.55625 
L 204.403125 -37.55625 
L 204.053125 -37.55625 
L 203.703125 -37.55625 
L 203.353125 -37.55625 
L 203.003125 -37.55625 
L 202.653125 -37.55625 
L 202.303125 -37.55625 
L 201.953125 -37.55625 
L 201.603125 -37.55625 
L 201.253125 -37.55625 
L 200.903125 -37.55625 
L 200.553125 -37.55625 
L 200.203125 -37.55625 
L 199.853125 -37.55625 
L 199.503125 -37.55625 
L 199.153125 -37.55625 
L 198.803125 -37.55625 
L 198.453125 -37.55625 
L 198.103125 -37.55625 
L 197.753125 -37.55625 
L 197.403125 -37.55625 
L 197.053125 -37.55625 
L 196.703125 -37.55625 
L 196.353125 -37.55625 
L 196.003125 -37.55625 
L 195.653125 -37.55625 
L 195.303125 -37.55625 
L 194.953125 -37.55625 
L 194.603125 -37.55625 
L 194.253125 -37.55625 
L 193.903125 -37.55625 
L 193.553125 -37.55625 
L 193.203125 -37.55625 
L 192.853125 -37.55625 
L 192.503125 -37.55625 
L 192.153125 -37.55625 
L 191.803125 -37.55625 
L 191.453125 -37.55625 
L 191.103125 -37.55625 
L 190.753125 -37.55625 
L 190.403125 -37.55625 
L 190.053125 -37.55625 
L 189.703125 -37.55625 
L 189.353125 -37.55625 
L 189.003125 -37.55625 
L 188.653125 -37.55625 
L 188.303125 -37.55625 
L 187.953125 -37.55625 
L 187.603125 -37.55625 
L 187.253125 -37.55625 
L 186.903125 -37.55625 
L 186.553125 -37.55625 
L 186.203125 -37.55625 
L 185.853125 -37.55625 
L 185.503125 -37.55625 
L 185.153125 -37.55625 
L 184.803125 -37.55625 
L 184.453125 -37.55625 
L 184.103125 -37.55625 
L 183.753125 -37.55625 
L 183.403125 -37.55625 
L 183.053125 -37.55625 
L 182.703125 -37.55625 
L 182.353125 -37.55625 
L 182.003125 -37.55625 
L 181.653125 -37.55625 
L 181.303125 -37.55625 
L 180.953125 -37.55625 
L 180.603125 -37.55625 
L 180.253125 -37.55625 
L 179.903125 -37.55625 
L 179.553125 -37.55625 
L 179.203125 -37.55625 
L 178.853125 -37.55625 
L 178.503125 -37.55625 
L 178.153125 -37.55625 
L 177.803125 -37.55625 
L 177.453125 -37.55625 
L 177.103125 -37.55625 
L 176.753125 -37.55625 
L 176.403125 -37.55625 
L 176.053125 -37.55625 
L 175.703125 -37.55625 
L 175.353125 -37.55625 
L 175.003125 -37.55625 
L 174.653125 -37.55625 
L 174.303125 -37.55625 
L 173.953125 -37.55625 
L 173.603125 -37.55625 
L 173.253125 -37.55625 
L 172.903125 -37.55625 
L 172.553125 -37.55625 
L 172.203125 -37.55625 
L 171.853125 -37.55625 
L 171.503125 -37.55625 
L 171.153125 -37.55625 
L 170.803125 -37.55625 
L 170.453125 -37.55625 
L 170.103125 -37.55625 
L 169.753125 -37.55625 
L 169.403125 -37.55625 
L 169.053125 -37.55625 
L 168.703125 -37.55625 
L 168.353125 -37.55625 
L 168.003125 -37.55625 
L 167.653125 -37.55625 
L 167.303125 -37.55625 
L 166.953125 -37.55625 
L 166.603125 -37.55625 
L 166.253125 -37.55625 
L 165.903125 -37.55625 
L 165.553125 -37.55625 
L 165.203125 -37.55625 
L 164.853125 -37.55625 
L 164.503125 -37.55625 
L 164.153125 -37.55625 
L 163.803125 -37.55625 
L 163.453125 -37.55625 
L 163.103125 -37.55625 
L 162.753125 -37.55625 
L 162.403125 -37.55625 
L 162.053125 -37.55625 
L 161.703125 -37.55625 
L 161.353125 -37.55625 
L 161.003125 -37.55625 
L 160.653125 -37.55625 
L 160.303125 -37.55625 
L 159.953125 -37.55625 
L 159.603125 -37.55625 
L 159.253125 -37.55625 
L 158.903125 -37.55625 
L 158.553125 -37.55625 
L 158.203125 -37.55625 
L 157.853125 -37.55625 
L 157.503125 -37.55625 
L 157.153125 -37.55625 
L 156.803125 -37.55625 
L 156.453125 -37.55625 
L 156.103125 -37.55625 
L 155.753125 -37.55625 
L 155.403125 -37.55625 
L 155.053125 -37.55625 
L 154.703125 -37.55625 
L 154.353125 -37.55625 
L 154.003125 -37.55625 
L 153.653125 -37.55625 
L 153.303125 -37.55625 
L 152.953125 -37.55625 
L 152.603125 -37.55625 
L 152.253125 -37.55625 
L 151.903125 -37.55625 
L 151.553125 -37.55625 
L 151.203125 -37.55625 
L 150.853125 -37.55625 
L 150.503125 -37.55625 
L 150.153125 -37.55625 
L 149.803125 -37.55625 
L 149.453125 -37.55625 
L 149.103125 -37.55625 
L 148.753125 -37.55625 
L 148.403125 -37.55625 
L 148.053125 -37.55625 
L 147.703125 -37.55625 
L 147.353125 -37.55625 
L 147.003125 -37.55625 
L 146.653125 -37.55625 
L 146.303125 -37.55625 
L 145.953125 -37.55625 
L 145.603125 -37.55625 
L 145.253125 -37.55625 
L 144.903125 -37.55625 
L 144.553125 -37.55625 
L 144.203125 -37.55625 
L 143.853125 -37.55625 
L 143.503125 -37.55625 
L 143.153125 -37.55625 
L 142.803125 -37.55625 
L 142.453125 -37.55625 
L 142.103125 -37.55625 
L 141.753125 -37.55625 
L 141.403125 -37.55625 
L 141.053125 -37.55625 
L 140.703125 -37.55625 
L 140.353125 -37.55625 
L 140.003125 -37.55625 
L 139.653125 -37.55625 
L 139.303125 -37.55625 
L 138.953125 -37.55625 
L 138.603125 -37.55625 
L 138.253125 -37.55625 
L 137.903125 -37.55625 
L 137.553125 -37.55625 
L 137.203125 -37.55625 
L 136.853125 -37.55625 
L 136.503125 -37.55625 
L 136.153125 -37.55625 
L 135.803125 -37.55625 
L 135.453125 -37.55625 
L 135.103125 -37.55625 
L 134.753125 -37.55625 
L 134.403125 -37.55625 
L 134.053125 -37.55625 
L 133.703125 -37.55625 
L 133.353125 -37.55625 
L 133.003125 -37.55625 
L 132.653125 -37.55625 
L 132.303125 -37.55625 
L 131.953125 -37.55625 
L 131.603125 -37.55625 
L 131.253125 -37.55625 
L 130.903125 -37.55625 
L 130.553125 -37.55625 
L 130.203125 -37.55625 
L 129.853125 -37.55625 
L 129.503125 -37.55625 
L 129.153125 -37.55625 
L 128.803125 -37.55625 
L 128.453125 -37.55625 
L 128.103125 -37.55625 
L 127.753125 -37.55625 
L 127.403125 -37.55625 
L 127.053125 -37.55625 
L 126.703125 -37.55625 
L 126.353125 -37.55625 
L 126.003125 -37.55625 
L 125.653125 -37.55625 
L 125.303125 -37.55625 
L 124.953125 -37.55625 
L 124.603125 -37.55625 
L 124.253125 -37.55625 
L 123.903125 -37.55625 
L 123.553125 -37.55625 
L 123.203125 -37.55625 
L 122.853125 -37.55625 
L 122.503125 -37.55625 
L 122.153125 -37.55625 
L 121.803125 -37.55625 
L 121.453125 -37.55625 
L 121.103125 -37.55625 
L 120.753125 -37.55625 
L 120.403125 -37.55625 
L 120.053125 -37.55625 
L 119.703125 -37.55625 
L 119.353125 -37.55625 
L 119.003125 -37.55625 
L 118.653125 -37.55625 
L 118.303125 -37.55625 
L 117.953125 -37.55625 
L 117.603125 -37.55625 
L 117.253125 -37.55625 
L 116.903125 -37.55625 
L 116.553125 -37.55625 
L 116.203125 -37.55625 
L 115.853125 -37.55625 
L 115.503125 -37.55625 
L 115.153125 -37.55625 
L 114.803125 -37.55625 
L 114.453125 -37.55625 
L 114.103125 -37.55625 
L 113.753125 -37.55625 
L 113.403125 -37.55625 
L 113.053125 -37.55625 
L 112.703125 -37.55625 
L 112.353125 -37.55625 
L 112.003125 -37.55625 
L 111.653125 -37.55625 
L 111.303125 -37.55625 
L 110.953125 -37.55625 
L 110.603125 -37.55625 
L 110.253125 -37.55625 
L 109.903125 -37.55625 
L 109.553125 -37.55625 
L 109.203125 -37.55625 
L 108.853125 -37.55625 
L 108.503125 -37.55625 
L 108.153125 -37.55625 
L 107.803125 -37.55625 
L 107.453125 -37.55625 
L 107.103125 -37.55625 
L 106.753125 -37.55625 
L 106.403125 -37.55625 
L 106.053125 -37.55625 
L 105.703125 -37.55625 
L 105.353125 -37.55625 
L 105.003125 -37.55625 
L 104.653125 -37.55625 
L 104.303125 -37.55625 
L 103.953125 -37.55625 
L 103.603125 -37.55625 
L 103.253125 -37.55625 
L 102.903125 -37.55625 
L 102.553125 -37.55625 
L 102.203125 -37.55625 
L 101.853125 -37.55625 
L 101.503125 -37.55625 
L 101.153125 -37.55625 
L 100.803125 -37.55625 
L 100.453125 -37.55625 
L 100.103125 -37.55625 
L 99.753125 -37.55625 
L 99.403125 -37.55625 
L 99.053125 -37.55625 
L 98.703125 -37.55625 
L 98.353125 -37.55625 
L 98.003125 -37.55625 
L 97.653125 -37.55625 
L 97.303125 -37.55625 
L 96.953125 -37.55625 
L 96.603125 -37.55625 
L 96.253125 -37.55625 
L 95.903125 -37.55625 
L 95.553125 -37.55625 
L 95.203125 -37.55625 
L 94.853125 -37.55625 
L 94.503125 -37.55625 
L 94.153125 -37.55625 
L 93.803125 -37.55625 
L 93.453125 -37.55625 
L 93.103125 -37.55625 
L 92.753125 -37.55625 
L 92.403125 -37.55625 
L 92.053125 -37.55625 
L 91.703125 -37.55625 
L 91.353125 -37.55625 
L 91.003125 -37.55625 
L 90.653125 -37.55625 
L 90.303125 -37.55625 
L 89.953125 -37.55625 
L 89.603125 -37.55625 
L 89.253125 -37.55625 
L 88.903125 -37.55625 
L 88.553125 -37.55625 
L 88.203125 -37.55625 
L 87.853125 -37.55625 
L 87.503125 -37.55625 
L 87.153125 -37.55625 
L 86.803125 -37.55625 
L 86.453125 -37.55625 
L 86.103125 -37.55625 
L 85.753125 -37.55625 
L 85.403125 -37.55625 
L 85.053125 -37.55625 
L 84.703125 -37.55625 
L 84.353125 -37.55625 
L 84.003125 -37.55625 
L 83.653125 -37.55625 
L 83.303125 -37.55625 
L 82.953125 -37.55625 
L 82.603125 -37.55625 
L 82.253125 -37.55625 
L 81.903125 -37.55625 
L 81.553125 -37.55625 
L 81.203125 -37.55625 
L 80.853125 -37.55625 
L 80.503125 -37.55625 
L 80.153125 -37.55625 
L 79.803125 -37.55625 
L 79.453125 -37.55625 
L 79.103125 -37.55625 
L 78.753125 -37.55625 
L 78.403125 -37.55625 
L 78.053125 -37.55625 
L 77.703125 -37.55625 
L 77.353125 -37.55625 
L 77.003125 -37.55625 
L 76.653125 -37.55625 
L 76.303125 -37.55625 
L 75.953125 -37.55625 
L 75.603125 -37.55625 
L 75.253125 -37.55625 
L 74.903125 -37.55625 
L 74.553125 -37.55625 
L 74.203125 -37.55625 
L 73.853125 -37.55625 
L 73.503125 -37.55625 
L 73.153125 -37.55625 
L 72.803125 -37.55625 
L 72.453125 -37.55625 
L 72.103125 -37.55625 
L 71.753125 -37.55625 
L 71.403125 -37.55625 
L 71.053125 -37.55625 
L 70.703125 -37.55625 
L 70.353125 -37.55625 
L 70.003125 -37.55625 
L 69.653125 -37.55625 
L 69.303125 -37.55625 
L 68.953125 -37.55625 
L 68.603125 -37.55625 
L 68.253125 -37.55625 
L 67.903125 -37.55625 
L 67.553125 -37.55625 
L 67.203125 -37.55625 
L 66.853125 -37.55625 
L 66.503125 -37.55625 
L 66.153125 -37.55625 
L 65.803125 -37.55625 
L 65.453125 -37.55625 
L 65.103125 -37.55625 
L 64.753125 -37.55625 
L 64.403125 -37.55625 
L 64.053125 -37.55625 
L 63.703125 -37.55625 
L 63.353125 -37.55625 
L 63.003125 -37.55625 
L 62.653125 -37.55625 
L 62.303125 -37.55625 
L 61.953125 -37.55625 
L 61.603125 -37.55625 
L 61.253125 -37.55625 
L 60.903125 -37.55625 
L 60.553125 -37.55625 
L 60.203125 -37.55625 
L 59.853125 -37.55625 
L 59.503125 -37.55625 
L 59.153125 -37.55625 
L 58.803125 -37.55625 
L 58.453125 -37.55625 
L 58.103125 -37.55625 
L 57.753125 -37.55625 
L 57.403125 -38.83128 
L 57.053125 -39.612175 
L 56.703125 -40.407305 
L 56.353125 -40.407305 
L 56.003125 -40.62693 
L 55.653125 -41.207381 
L 55.303125 -41.547726 
L 54.953125 -41.707448 
L 54.603125 -41.707448 
L 54.253125 -42.00974 
L 53.903125 -42.153437 
L 53.553125 -42.153437 
L 53.203125 -42.428134 
L 52.853125 -42.428134 
L 52.503125 -42.428134 
L 52.153125 -42.935609 
L 51.803125 -42.935609 
L 51.453125 -43.286799 
L 51.103125 -43.172176 
L 50.753125 -43.172176 
L 50.403125 -43.286799 
L 50.053125 -43.342456 
L 49.703125 -43.342456 
L 49.353125 -43.724024 
L 49.003125 -43.724024 
L 48.653125 -43.509427 
L 48.303125 -43.724024 
L 47.953125 -43.617675 
L 47.603125 -43.509427 
L 47.253125 -43.509427 
L 46.903125 -43.509427 
L 46.553125 -43.172176 
L 46.203125 -42.935609 
L 45.853125 -42.935609 
L 45.503125 -42.813335 
L 45.153125 -42.428134 
L 44.803125 -42.153437 
L 44.453125 -42.153437 
L 44.103125 -41.707448 
L 43.753125 -41.381341 
L 43.403125 -41.024708 
L 43.053125 -40.62693 
L 42.703125 -40.407305 
L 42.353125 -39.90729 
L 42.003125 -39.612175 
L 41.653125 -38.83128 
L 41.303125 -38.83128 
L 40.953125 -38.126461 
L 40.603125 -37.55625 
z
" id="mf820ed48e0" style="stroke:#505050;"/>
    </defs>
    <g clip-path="url(#p5b8fd23658)">
     <use style="fill:#505050;stroke:#505050;" x="0" xlink:href="#mf820ed48e0" y="250.155469"/>
    </g>
   </g>
   <g id="matplotlib.axis_1">
    <g id="xtick_1">
     <g id="line2d_1">
      <defs>
       <path d="M 0 0 
L 0 3.5 
" id="m0148caef05" style="stroke:#000000;stroke-width:0.8;"/>
      </defs>
      <g>
       <use style="stroke:#000000;stroke-width:0.8;" x="40.603125" xlink:href="#m0148caef05" y="212.599219"/>
      </g>
     </g>
     <g id="text_1">
      <!-- 0 -->
      <defs>
       <path d="M 31.78125 66.40625 
Q 24.171875 66.40625 20.328125 58.90625 
Q 16.5 51.421875 16.5 36.375 
Q 16.5 21.390625 20.328125 13.890625 
Q 24.171875 6.390625 31.78125 6.390625 
Q 39.453125 6.390625 43.28125 13.890625 
Q 47.125 21.390625 47.125 36.375 
Q 47.125 51.421875 43.28125 58.90625 
Q 39.453125 66.40625 31.78125 66.40625 
z
M 31.78125 74.21875 
Q 44.046875 74.21875 50.515625 64.515625 
Q 56.984375 54.828125 56.984375 36.375 
Q 56.984375 17.96875 50.515625 8.265625 
Q 44.046875 -1.421875 31.78125 -1.421875 
Q 19.53125 -1.421875 13.0625 8.265625 
Q 6.59375 17.96875 6.59375 36.375 
Q 6.59375 54.828125 13.0625 64.515625 
Q 19.53125 74.21875 31.78125 74.21875 
z
" id="DejaVuSans-48"/>
      </defs>
      <g transform="translate(37.421875 227.197656)scale(0.1 -0.1)">
       <use xlink:href="#DejaVuSans-48"/>
      </g>
     </g>
    </g>
    <g id="xtick_2">
     <g id="line2d_2">
      <g>
       <use style="stroke:#000000;stroke-width:0.8;" x="82.603125" xlink:href="#m0148caef05" y="212.599219"/>
      </g>
     </g>
     <g id="text_2">
      <!-- 10 -->
      <defs>
       <path d="M 12.40625 8.296875 
L 28.515625 8.296875 
L 28.515625 63.921875 
L 10.984375 60.40625 
L 10.984375 69.390625 
L 28.421875 72.90625 
L 38.28125 72.90625 
L 38.28125 8.296875 
L 54.390625 8.296875 
L 54.390625 0 
L 12.40625 0 
z
" id="DejaVuSans-49"/>
      </defs>
      <g transform="translate(76.240625 227.197656)scale(0.1 -0.1)">
       <use xlink:href="#DejaVuSans-49"/>
       <use x="63.623047" xlink:href="#DejaVuSans-48"/>
      </g>
     </g>
    </g>
    <g id="xtick_3">
     <g id="line2d_3">
      <g>
       <use style="stroke:#000000;stroke-width:0.8;" x="124.603125" xlink:href="#m0148caef05" y="212.599219"/>
      </g>
     </g>
     <g id="text_3">
      <!-- 20 -->
      <defs>
       <path d="M 19.1875 8.296875 
L 53.609375 8.296875 
L 53.609375 0 
L 7.328125 0 
L 7.328125 8.296875 
Q 12.9375 14.109375 22.625 23.890625 
Q 32.328125 33.6875 34.8125 36.53125 
Q 39.546875 41.84375 41.421875 45.53125 
Q 43.3125 49.21875 43.3125 52.78125 
Q 43.3125 58.59375 39.234375 62.25 
Q 35.15625 65.921875 28.609375 65.921875 
Q 23.96875 65.921875 18.8125 64.3125 
Q 13.671875 62.703125 7.8125 59.421875 
L 7.8125 69.390625 
Q 13.765625 71.78125 18.9375 73 
Q 24.125 74.21875 28.421875 74.21875 
Q 39.75 74.21875 46.484375 68.546875 
Q 53.21875 62.890625 53.21875 53.421875 
Q 53.21875 48.921875 51.53125 44.890625 
Q 49.859375 40.875 45.40625 35.40625 
Q 44.1875 33.984375 37.640625 27.21875 
Q 31.109375 20.453125 19.1875 8.296875 
z
" id="DejaVuSans-50"/>
      </defs>
      <g transform="translate(118.240625 227.197656)scale(0.1 -0.1)">
       <use xlink:href="#DejaVuSans-50"/>
       <use x="63.623047" xlink:href="#DejaVuSans-48"/>
      </g>
     </g>
    </g>
    <g id="xtick_4">
     <g id="line2d_4">
      <g>
       <use style="stroke:#000000;stroke-width:0.8;" x="166.603125" xlink:href="#m0148caef05" y="212.599219"/>
      </g>
     </g>
     <g id="text_4">
      <!-- 30 -->
      <defs>
       <path d="M 40.578125 39.3125 
Q 47.65625 37.796875 51.625 33 
Q 55.609375 28.21875 55.609375 21.1875 
Q 55.609375 10.40625 48.1875 4.484375 
Q 40.765625 -1.421875 27.09375 -1.421875 
Q 22.515625 -1.421875 17.65625 -0.515625 
Q 12.796875 0.390625 7.625 2.203125 
L 7.625 11.71875 
Q 11.71875 9.328125 16.59375 8.109375 
Q 21.484375 6.890625 26.8125 6.890625 
Q 36.078125 6.890625 40.9375 10.546875 
Q 45.796875 14.203125 45.796875 21.1875 
Q 45.796875 27.640625 41.28125 31.265625 
Q 36.765625 34.90625 28.71875 34.90625 
L 20.21875 34.90625 
L 20.21875 43.015625 
L 29.109375 43.015625 
Q 36.375 43.015625 40.234375 45.921875 
Q 44.09375 48.828125 44.09375 54.296875 
Q 44.09375 59.90625 40.109375 62.90625 
Q 36.140625 65.921875 28.71875 65.921875 
Q 24.65625 65.921875 20.015625 65.03125 
Q 15.375 64.15625 9.8125 62.3125 
L 9.8125 71.09375 
Q 15.4375 72.65625 20.34375 73.4375 
Q 25.25 74.21875 29.59375 74.21875 
Q 40.828125 74.21875 47.359375 69.109375 
Q 53.90625 64.015625 53.90625 55.328125 
Q 53.90625 49.265625 50.4375 45.09375 
Q 46.96875 40.921875 40.578125 39.3125 
z
" id="DejaVuSans-51"/>
      </defs>
      <g transform="translate(160.240625 227.197656)scale(0.1 -0.1)">
       <use xlink:href="#DejaVuSans-51"/>
       <use x="63.623047" xlink:href="#DejaVuSans-48"/>
      </g>
     </g>
    </g>
    <g id="xtick_5">
     <g id="line2d_5">
      <g>
       <use style="stroke:#000000;stroke-width:0.8;" x="208.603125" xlink:href="#m0148caef05" y="212.599219"/>
      </g>
     </g>
     <g id="text_5">
      <!-- 40 -->
      <defs>
       <path d="M 37.796875 64.3125 
L 12.890625 25.390625 
L 37.796875 25.390625 
z
M 35.203125 72.90625 
L 47.609375 72.90625 
L 47.609375 25.390625 
L 58.015625 25.390625 
L 58.015625 17.1875 
L 47.609375 17.1875 
L 47.609375 0 
L 37.796875 0 
L 37.796875 17.1875 
L 4.890625 17.1875 
L 4.890625 26.703125 
z
" id="DejaVuSans-52"/>
      </defs>
      <g transform="translate(202.240625 227.197656)scale(0.1 -0.1)">
       <use xlink:href="#DejaVuSans-52"/>
       <use x="63.623047" xlink:href="#DejaVuSans-48"/>
      </g>
     </g>
    </g>
    <g id="text_6">
     <!-- Hours after release -->
     <defs>
      <path d="M 9.8125 72.90625 
L 19.671875 72.90625 
L 19.671875 43.015625 
L 55.515625 43.015625 
L 55.515625 72.90625 
L 65.375 72.90625 
L 65.375 0 
L 55.515625 0 
L 55.515625 34.71875 
L 19.671875 34.71875 
L 19.671875 0 
L 9.8125 0 
z
" id="DejaVuSans-72"/>
      <path d="M 30.609375 48.390625 
Q 23.390625 48.390625 19.1875 42.75 
Q 14.984375 37.109375 14.984375 27.296875 
Q 14.984375 17.484375 19.15625 11.84375 
Q 23.34375 6.203125 30.609375 6.203125 
Q 37.796875 6.203125 41.984375 11.859375 
Q 46.1875 17.53125 46.1875 27.296875 
Q 46.1875 37.015625 41.984375 42.703125 
Q 37.796875 48.390625 30.609375 48.390625 
z
M 30.609375 56 
Q 42.328125 56 49.015625 48.375 
Q 55.71875 40.765625 55.71875 27.296875 
Q 55.71875 13.875 49.015625 6.21875 
Q 42.328125 -1.421875 30.609375 -1.421875 
Q 18.84375 -1.421875 12.171875 6.21875 
Q 5.515625 13.875 5.515625 27.296875 
Q 5.515625 40.765625 12.171875 48.375 
Q 18.84375 56 30.609375 56 
z
" id="DejaVuSans-111"/>
      <path d="M 8.5 21.578125 
L 8.5 54.6875 
L 17.484375 54.6875 
L 17.484375 21.921875 
Q 17.484375 14.15625 20.5 10.265625 
Q 23.53125 6.390625 29.59375 6.390625 
Q 36.859375 6.390625 41.078125 11.03125 
Q 45.3125 15.671875 45.3125 23.6875 
L 45.3125 54.6875 
L 54.296875 54.6875 
L 54.296875 0 
L 45.3125 0 
L 45.3125 8.40625 
Q 42.046875 3.421875 37.71875 1 
Q 33.40625 -1.421875 27.6875 -1.421875 
Q 18.265625 -1.421875 13.375 4.4375 
Q 8.5 10.296875 8.5 21.578125 
z
M 31.109375 56 
z
" id="DejaVuSans-117"/>
      <path d="M 41.109375 46.296875 
Q 39.59375 47.171875 37.8125 47.578125 
Q 36.03125 48 33.890625 48 
Q 26.265625 48 22.1875 43.046875 
Q 18.109375 38.09375 18.109375 28.8125 
L 18.109375 0 
L 9.078125 0 
L 9.078125 54.6875 
L 18.109375 54.6875 
L 18.109375 46.1875 
Q 20.953125 51.171875 25.484375 53.578125 
Q 30.03125 56 36.53125 56 
Q 37.453125 56 38.578125 55.875 
Q 39.703125 55.765625 41.0625 55.515625 
z
" id="DejaVuSans-114"/>
      <path d="M 44.28125 53.078125 
L 44.28125 44.578125 
Q 40.484375 46.53125 36.375 47.5 
Q 32.28125 48.484375 27.875 48.484375 
Q 21.1875 48.484375 17.84375 46.4375 
Q 14.5 44.390625 14.5 40.28125 
Q 14.5 37.15625 16.890625 35.375 
Q 19.28125 33.59375 26.515625 31.984375 
L 29.59375 31.296875 
Q 39.15625 29.25 43.1875 25.515625 
Q 47.21875 21.78125 47.21875 15.09375 
Q 47.21875 7.46875 41.1875 3.015625 
Q 35.15625 -1.421875 24.609375 -1.421875 
Q 20.21875 -1.421875 15.453125 -0.5625 
Q 10.6875 0.296875 5.421875 2 
L 5.421875 11.28125 
Q 10.40625 8.6875 15.234375 7.390625 
Q 20.0625 6.109375 24.8125 6.109375 
Q 31.15625 6.109375 34.5625 8.28125 
Q 37.984375 10.453125 37.984375 14.40625 
Q 37.984375 18.0625 35.515625 20.015625 
Q 33.0625 21.96875 24.703125 23.78125 
L 21.578125 24.515625 
Q 13.234375 26.265625 9.515625 29.90625 
Q 5.8125 33.546875 5.8125 39.890625 
Q 5.8125 47.609375 11.28125 51.796875 
Q 16.75 56 26.8125 56 
Q 31.78125 56 36.171875 55.265625 
Q 40.578125 54.546875 44.28125 53.078125 
z
" id="DejaVuSans-115"/>
      <path id="DejaVuSans-32"/>
      <path d="M 34.28125 27.484375 
Q 23.390625 27.484375 19.1875 25 
Q 14.984375 22.515625 14.984375 16.5 
Q 14.984375 11.71875 18.140625 8.90625 
Q 21.296875 6.109375 26.703125 6.109375 
Q 34.1875 6.109375 38.703125 11.40625 
Q 43.21875 16.703125 43.21875 25.484375 
L 43.21875 27.484375 
z
M 52.203125 31.203125 
L 52.203125 0 
L 43.21875 0 
L 43.21875 8.296875 
Q 40.140625 3.328125 35.546875 0.953125 
Q 30.953125 -1.421875 24.3125 -1.421875 
Q 15.921875 -1.421875 10.953125 3.296875 
Q 6 8.015625 6 15.921875 
Q 6 25.140625 12.171875 29.828125 
Q 18.359375 34.515625 30.609375 34.515625 
L 43.21875 34.515625 
L 43.21875 35.40625 
Q 43.21875 41.609375 39.140625 45 
Q 35.0625 48.390625 27.6875 48.390625 
Q 23 48.390625 18.546875 47.265625 
Q 14.109375 46.140625 10.015625 43.890625 
L 10.015625 52.203125 
Q 14.9375 54.109375 19.578125 55.046875 
Q 24.21875 56 28.609375 56 
Q 40.484375 56 46.34375 49.84375 
Q 52.203125 43.703125 52.203125 31.203125 
z
" id="DejaVuSans-97"/>
      <path d="M 37.109375 75.984375 
L 37.109375 68.5 
L 28.515625 68.5 
Q 23.6875 68.5 21.796875 66.546875 
Q 19.921875 64.59375 19.921875 59.515625 
L 19.921875 54.6875 
L 34.71875 54.6875 
L 34.71875 47.703125 
L 19.921875 47.703125 
L 19.921875 0 
L 10.890625 0 
L 10.890625 47.703125 
L 2.296875 47.703125 
L 2.296875 54.6875 
L 10.890625 54.6875 
L 10.890625 58.5 
Q 10.890625 67.625 15.140625 71.796875 
Q 19.390625 75.984375 28.609375 75.984375 
z
" id="DejaVuSans-102"/>
      <path d="M 18.3125 70.21875 
L 18.3125 54.6875 
L 36.8125 54.6875 
L 36.8125 47.703125 
L 18.3125 47.703125 
L 18.3125 18.015625 
Q 18.3125 11.328125 20.140625 9.421875 
Q 21.96875 7.515625 27.59375 7.515625 
L 36.8125 7.515625 
L 36.8125 0 
L 27.59375 0 
Q 17.1875 0 13.234375 3.875 
Q 9.28125 7.765625 9.28125 18.015625 
L 9.28125 47.703125 
L 2.6875 47.703125 
L 2.6875 54.6875 
L 9.28125 54.6875 
L 9.28125 70.21875 
z
" id="DejaVuSans-116"/>
      <path d="M 56.203125 29.59375 
L 56.203125 25.203125 
L 14.890625 25.203125 
Q 15.484375 15.921875 20.484375 11.0625 
Q 25.484375 6.203125 34.421875 6.203125 
Q 39.59375 6.203125 44.453125 7.46875 
Q 49.3125 8.734375 54.109375 11.28125 
L 54.109375 2.78125 
Q 49.265625 0.734375 44.1875 -0.34375 
Q 39.109375 -1.421875 33.890625 -1.421875 
Q 20.796875 -1.421875 13.15625 6.1875 
Q 5.515625 13.8125 5.515625 26.8125 
Q 5.515625 40.234375 12.765625 48.109375 
Q 20.015625 56 32.328125 56 
Q 43.359375 56 49.78125 48.890625 
Q 56.203125 41.796875 56.203125 29.59375 
z
M 47.21875 32.234375 
Q 47.125 39.59375 43.09375 43.984375 
Q 39.0625 48.390625 32.421875 48.390625 
Q 24.90625 48.390625 20.390625 44.140625 
Q 15.875 39.890625 15.1875 32.171875 
z
" id="DejaVuSans-101"/>
      <path d="M 9.421875 75.984375 
L 18.40625 75.984375 
L 18.40625 0 
L 9.421875 0 
z
" id="DejaVuSans-108"/>
     </defs>
     <g transform="translate(93.319531 240.875781)scale(0.1 -0.1)">
      <use xlink:href="#DejaVuSans-72"/>
      <use x="75.195312" xlink:href="#DejaVuSans-111"/>
      <use x="136.376953" xlink:href="#DejaVuSans-117"/>
      <use x="199.755859" xlink:href="#DejaVuSans-114"/>
      <use x="240.869141" xlink:href="#DejaVuSans-115"/>
      <use x="292.96875" xlink:href="#DejaVuSans-32"/>
      <use x="324.755859" xlink:href="#DejaVuSans-97"/>
      <use x="386.035156" xlink:href="#DejaVuSans-102"/>
      <use x="421.224609" xlink:href="#DejaVuSans-116"/>
      <use x="460.433594" xlink:href="#DejaVuSans-101"/>
      <use x="521.957031" xlink:href="#DejaVuSans-114"/>
      <use x="563.070312" xlink:href="#DejaVuSans-32"/>
      <use x="594.857422" xlink:href="#DejaVuSans-114"/>
      <use x="635.939453" xlink:href="#DejaVuSans-101"/>
      <use x="697.462891" xlink:href="#DejaVuSans-108"/>
      <use x="725.246094" xlink:href="#DejaVuSans-101"/>
      <use x="786.769531" xlink:href="#DejaVuSans-97"/>
      <use x="848.048828" xlink:href="#DejaVuSans-115"/>
      <use x="900.148438" xlink:href="#DejaVuSans-101"/>
     </g>
    </g>
   </g>
   <g id="matplotlib.axis_2">
    <g id="ytick_1">
     <g id="line2d_6">
      <defs>
       <path d="M 0 0 
L -3.5 0 
" id="md5165431a8" style="stroke:#000000;stroke-width:0.8;"/>
      </defs>
      <g>
       <use style="stroke:#000000;stroke-width:0.8;" x="40.603125" xlink:href="#md5165431a8" y="212.599219"/>
      </g>
     </g>
     <g id="text_7">
      <!-- 0 -->
      <g transform="translate(27.240625 216.398437)scale(0.1 -0.1)">
       <use xlink:href="#DejaVuSans-48"/>
      </g>
     </g>
    </g>
    <g id="ytick_2">
     <g id="line2d_7">
      <g>
       <use style="stroke:#000000;stroke-width:0.8;" x="40.603125" xlink:href="#md5165431a8" y="172.279219"/>
      </g>
     </g>
     <g id="text_8">
      <!-- 5 -->
      <defs>
       <path d="M 10.796875 72.90625 
L 49.515625 72.90625 
L 49.515625 64.59375 
L 19.828125 64.59375 
L 19.828125 46.734375 
Q 21.96875 47.46875 24.109375 47.828125 
Q 26.265625 48.1875 28.421875 48.1875 
Q 40.625 48.1875 47.75 41.5 
Q 54.890625 34.8125 54.890625 23.390625 
Q 54.890625 11.625 47.5625 5.09375 
Q 40.234375 -1.421875 26.90625 -1.421875 
Q 22.3125 -1.421875 17.546875 -0.640625 
Q 12.796875 0.140625 7.71875 1.703125 
L 7.71875 11.625 
Q 12.109375 9.234375 16.796875 8.0625 
Q 21.484375 6.890625 26.703125 6.890625 
Q 35.15625 6.890625 40.078125 11.328125 
Q 45.015625 15.765625 45.015625 23.390625 
Q 45.015625 31 40.078125 35.4375 
Q 35.15625 39.890625 26.703125 39.890625 
Q 22.75 39.890625 18.8125 39.015625 
Q 14.890625 38.140625 10.796875 36.28125 
z
" id="DejaVuSans-53"/>
      </defs>
      <g transform="translate(27.240625 176.078437)scale(0.1 -0.1)">
       <use xlink:href="#DejaVuSans-53"/>
      </g>
     </g>
    </g>
    <g id="ytick_3">
     <g id="line2d_8">
      <g>
       <use style="stroke:#000000;stroke-width:0.8;" x="40.603125" xlink:href="#md5165431a8" y="131.959219"/>
      </g>
     </g>
     <g id="text_9">
      <!-- 10 -->
      <g transform="translate(20.878125 135.758437)scale(0.1 -0.1)">
       <use xlink:href="#DejaVuSans-49"/>
       <use x="63.623047" xlink:href="#DejaVuSans-48"/>
      </g>
     </g>
    </g>
    <g id="ytick_4">
     <g id="line2d_9">
      <g>
       <use style="stroke:#000000;stroke-width:0.8;" x="40.603125" xlink:href="#md5165431a8" y="91.639219"/>
      </g>
     </g>
     <g id="text_10">
      <!-- 15 -->
      <g transform="translate(20.878125 95.438437)scale(0.1 -0.1)">
       <use xlink:href="#DejaVuSans-49"/>
       <use x="63.623047" xlink:href="#DejaVuSans-53"/>
      </g>
     </g>
    </g>
    <g id="ytick_5">
     <g id="line2d_10">
      <g>
       <use style="stroke:#000000;stroke-width:0.8;" x="40.603125" xlink:href="#md5165431a8" y="51.319219"/>
      </g>
     </g>
     <g id="text_11">
      <!-- 20 -->
      <g transform="translate(20.878125 55.118437)scale(0.1 -0.1)">
       <use xlink:href="#DejaVuSans-50"/>
       <use x="63.623047" xlink:href="#DejaVuSans-48"/>
      </g>
     </g>
    </g>
    <g id="ytick_6">
     <g id="line2d_11">
      <g>
       <use style="stroke:#000000;stroke-width:0.8;" x="40.603125" xlink:href="#md5165431a8" y="10.999219"/>
      </g>
     </g>
     <g id="text_12">
      <!-- 25 -->
      <g transform="translate(20.878125 14.798437)scale(0.1 -0.1)">
       <use xlink:href="#DejaVuSans-50"/>
       <use x="63.623047" xlink:href="#DejaVuSans-53"/>
      </g>
     </g>
    </g>
    <g id="text_13">
     <!-- Maximal plume extent (km) -->
     <defs>
      <path d="M 9.8125 72.90625 
L 24.515625 72.90625 
L 43.109375 23.296875 
L 61.8125 72.90625 
L 76.515625 72.90625 
L 76.515625 0 
L 66.890625 0 
L 66.890625 64.015625 
L 48.09375 14.015625 
L 38.1875 14.015625 
L 19.390625 64.015625 
L 19.390625 0 
L 9.8125 0 
z
" id="DejaVuSans-77"/>
      <path d="M 54.890625 54.6875 
L 35.109375 28.078125 
L 55.90625 0 
L 45.3125 0 
L 29.390625 21.484375 
L 13.484375 0 
L 2.875 0 
L 24.125 28.609375 
L 4.6875 54.6875 
L 15.28125 54.6875 
L 29.78125 35.203125 
L 44.28125 54.6875 
z
" id="DejaVuSans-120"/>
      <path d="M 9.421875 54.6875 
L 18.40625 54.6875 
L 18.40625 0 
L 9.421875 0 
z
M 9.421875 75.984375 
L 18.40625 75.984375 
L 18.40625 64.59375 
L 9.421875 64.59375 
z
" id="DejaVuSans-105"/>
      <path d="M 52 44.1875 
Q 55.375 50.25 60.0625 53.125 
Q 64.75 56 71.09375 56 
Q 79.640625 56 84.28125 50.015625 
Q 88.921875 44.046875 88.921875 33.015625 
L 88.921875 0 
L 79.890625 0 
L 79.890625 32.71875 
Q 79.890625 40.578125 77.09375 44.375 
Q 74.3125 48.1875 68.609375 48.1875 
Q 61.625 48.1875 57.5625 43.546875 
Q 53.515625 38.921875 53.515625 30.90625 
L 53.515625 0 
L 44.484375 0 
L 44.484375 32.71875 
Q 44.484375 40.625 41.703125 44.40625 
Q 38.921875 48.1875 33.109375 48.1875 
Q 26.21875 48.1875 22.15625 43.53125 
Q 18.109375 38.875 18.109375 30.90625 
L 18.109375 0 
L 9.078125 0 
L 9.078125 54.6875 
L 18.109375 54.6875 
L 18.109375 46.1875 
Q 21.1875 51.21875 25.484375 53.609375 
Q 29.78125 56 35.6875 56 
Q 41.65625 56 45.828125 52.96875 
Q 50 49.953125 52 44.1875 
z
" id="DejaVuSans-109"/>
      <path d="M 18.109375 8.203125 
L 18.109375 -20.796875 
L 9.078125 -20.796875 
L 9.078125 54.6875 
L 18.109375 54.6875 
L 18.109375 46.390625 
Q 20.953125 51.265625 25.265625 53.625 
Q 29.59375 56 35.59375 56 
Q 45.5625 56 51.78125 48.09375 
Q 58.015625 40.1875 58.015625 27.296875 
Q 58.015625 14.40625 51.78125 6.484375 
Q 45.5625 -1.421875 35.59375 -1.421875 
Q 29.59375 -1.421875 25.265625 0.953125 
Q 20.953125 3.328125 18.109375 8.203125 
z
M 48.6875 27.296875 
Q 48.6875 37.203125 44.609375 42.84375 
Q 40.53125 48.484375 33.40625 48.484375 
Q 26.265625 48.484375 22.1875 42.84375 
Q 18.109375 37.203125 18.109375 27.296875 
Q 18.109375 17.390625 22.1875 11.75 
Q 26.265625 6.109375 33.40625 6.109375 
Q 40.53125 6.109375 44.609375 11.75 
Q 48.6875 17.390625 48.6875 27.296875 
z
" id="DejaVuSans-112"/>
      <path d="M 54.890625 33.015625 
L 54.890625 0 
L 45.90625 0 
L 45.90625 32.71875 
Q 45.90625 40.484375 42.875 44.328125 
Q 39.84375 48.1875 33.796875 48.1875 
Q 26.515625 48.1875 22.3125 43.546875 
Q 18.109375 38.921875 18.109375 30.90625 
L 18.109375 0 
L 9.078125 0 
L 9.078125 54.6875 
L 18.109375 54.6875 
L 18.109375 46.1875 
Q 21.34375 51.125 25.703125 53.5625 
Q 30.078125 56 35.796875 56 
Q 45.21875 56 50.046875 50.171875 
Q 54.890625 44.34375 54.890625 33.015625 
z
" id="DejaVuSans-110"/>
      <path d="M 31 75.875 
Q 24.46875 64.65625 21.28125 53.65625 
Q 18.109375 42.671875 18.109375 31.390625 
Q 18.109375 20.125 21.3125 9.0625 
Q 24.515625 -2 31 -13.1875 
L 23.1875 -13.1875 
Q 15.875 -1.703125 12.234375 9.375 
Q 8.59375 20.453125 8.59375 31.390625 
Q 8.59375 42.28125 12.203125 53.3125 
Q 15.828125 64.359375 23.1875 75.875 
z
" id="DejaVuSans-40"/>
      <path d="M 9.078125 75.984375 
L 18.109375 75.984375 
L 18.109375 31.109375 
L 44.921875 54.6875 
L 56.390625 54.6875 
L 27.390625 29.109375 
L 57.625 0 
L 45.90625 0 
L 18.109375 26.703125 
L 18.109375 0 
L 9.078125 0 
z
" id="DejaVuSans-107"/>
      <path d="M 8.015625 75.875 
L 15.828125 75.875 
Q 23.140625 64.359375 26.78125 53.3125 
Q 30.421875 42.28125 30.421875 31.390625 
Q 30.421875 20.453125 26.78125 9.375 
Q 23.140625 -1.703125 15.828125 -13.1875 
L 8.015625 -13.1875 
Q 14.5 -2 17.703125 9.0625 
Q 20.90625 20.125 20.90625 31.390625 
Q 20.90625 42.671875 17.703125 53.65625 
Q 14.5 64.65625 8.015625 75.875 
z
" id="DejaVuSans-41"/>
     </defs>
     <g transform="translate(14.798438 181.163281)rotate(-90)scale(0.1 -0.1)">
      <use xlink:href="#DejaVuSans-77"/>
      <use x="86.279297" xlink:href="#DejaVuSans-97"/>
      <use x="147.558594" xlink:href="#DejaVuSans-120"/>
      <use x="206.738281" xlink:href="#DejaVuSans-105"/>
      <use x="234.521484" xlink:href="#DejaVuSans-109"/>
      <use x="331.933594" xlink:href="#DejaVuSans-97"/>
      <use x="393.212891" xlink:href="#DejaVuSans-108"/>
      <use x="420.996094" xlink:href="#DejaVuSans-32"/>
      <use x="452.783203" xlink:href="#DejaVuSans-112"/>
      <use x="516.259766" xlink:href="#DejaVuSans-108"/>
      <use x="544.042969" xlink:href="#DejaVuSans-117"/>
      <use x="607.421875" xlink:href="#DejaVuSans-109"/>
      <use x="704.833984" xlink:href="#DejaVuSans-101"/>
      <use x="766.357422" xlink:href="#DejaVuSans-32"/>
      <use x="798.144531" xlink:href="#DejaVuSans-101"/>
      <use x="859.652344" xlink:href="#DejaVuSans-120"/>
      <use x="918.832031" xlink:href="#DejaVuSans-116"/>
      <use x="958.041016" xlink:href="#DejaVuSans-101"/>
      <use x="1019.564453" xlink:href="#DejaVuSans-110"/>
      <use x="1082.943359" xlink:href="#DejaVuSans-116"/>
      <use x="1122.152344" xlink:href="#DejaVuSans-32"/>
      <use x="1153.939453" xlink:href="#DejaVuSans-40"/>
      <use x="1192.953125" xlink:href="#DejaVuSans-107"/>
      <use x="1250.863281" xlink:href="#DejaVuSans-109"/>
      <use x="1348.275391" xlink:href="#DejaVuSans-41"/>
     </g>
    </g>
   </g>
   <g id="line2d_12">
    <path clip-path="url(#p5b8fd23658)" d="M 40.603125 212.599219 
L 40.953125 212.029008 
L 48.303125 212.029008 
L 48.653125 212.599219 
L 242.203125 212.599219 
L 242.203125 212.599219 
" style="fill:none;stroke:#404040;stroke-linecap:square;stroke-width:2;"/>
   </g>
   <g id="line2d_13">
    <path clip-path="url(#p5b8fd23658)" d="M 40.603125 212.599219 
L 40.603125 10.999219 
" style="fill:none;stroke:#000000;stroke-linecap:square;stroke-opacity:0.188235;"/>
   </g>
   <g id="line2d_14">
    <path clip-path="url(#p5b8fd23658)" d="M 82.603125 212.599219 
L 82.603125 10.999219 
" style="fill:none;stroke:#000000;stroke-linecap:square;stroke-opacity:0.188235;"/>
   </g>
   <g id="line2d_15">
    <path clip-path="url(#p5b8fd23658)" d="M 124.603125 212.599219 
L 124.603125 10.999219 
" style="fill:none;stroke:#000000;stroke-linecap:square;stroke-opacity:0.188235;"/>
   </g>
   <g id="line2d_16">
    <path clip-path="url(#p5b8fd23658)" d="M 166.603125 212.599219 
L 166.603125 10.999219 
" style="fill:none;stroke:#000000;stroke-linecap:square;stroke-opacity:0.188235;"/>
   </g>
   <g id="line2d_17">
    <path clip-path="url(#p5b8fd23658)" d="M 208.603125 212.599219 
L 208.603125 10.999219 
" style="fill:none;stroke:#000000;stroke-linecap:square;stroke-opacity:0.188235;"/>
   </g>
   <g id="line2d_18">
    <path clip-path="url(#p5b8fd23658)" d="M 250.603125 212.599219 
L 250.603125 10.999219 
" style="fill:none;stroke:#000000;stroke-linecap:square;stroke-opacity:0.188235;"/>
   </g>
   <g id="line2d_19">
    <path clip-path="url(#p5b8fd23658)" d="M 40.603125 212.599219 
L 242.203125 212.599219 
" style="fill:none;stroke:#000000;stroke-linecap:square;stroke-opacity:0.188235;"/>
   </g>
   <g id="line2d_20">
    <path clip-path="url(#p5b8fd23658)" d="M 40.603125 172.279219 
L 242.203125 172.279219 
" style="fill:none;stroke:#000000;stroke-linecap:square;stroke-opacity:0.188235;"/>
   </g>
   <g id="line2d_21">
    <path clip-path="url(#p5b8fd23658)" d="M 40.603125 131.959219 
L 242.203125 131.959219 
" style="fill:none;stroke:#000000;stroke-linecap:square;stroke-opacity:0.188235;"/>
   </g>
   <g id="line2d_22">
    <path clip-path="url(#p5b8fd23658)" d="M 40.603125 91.639219 
L 242.203125 91.639219 
" style="fill:none;stroke:#000000;stroke-linecap:square;stroke-opacity:0.188235;"/>
   </g>
   <g id="line2d_23">
    <path clip-path="url(#p5b8fd23658)" d="M 40.603125 51.319219 
L 242.203125 51.319219 
" style="fill:none;stroke:#000000;stroke-linecap:square;stroke-opacity:0.188235;"/>
   </g>
   <g id="line2d_24">
    <path clip-path="url(#p5b8fd23658)" d="M 40.603125 10.999219 
L 242.203125 10.999219 
" style="fill:none;stroke:#000000;stroke-linecap:square;stroke-opacity:0.188235;"/>
   </g>
   <g id="patch_3">
    <path d="M 40.603125 212.599219 
L 40.603125 10.999219 
" style="fill:none;stroke:#000000;stroke-linecap:square;stroke-linejoin:miter;stroke-width:0.8;"/>
   </g>
   <g id="patch_4">
    <path d="M 40.603125 212.599219 
L 242.203125 212.599219 
" style="fill:none;stroke:#000000;stroke-linecap:square;stroke-linejoin:miter;stroke-width:0.8;"/>
   </g>
   <g id="line2d_25">
    <path clip-path="url(#p5b8fd23658)" d="M 40.603125 212.599219 
L 40.953125 212.029008 
L 42.353125 212.029008 
L 42.703125 211.324188 
L 44.803125 211.324188 
L 45.153125 210.888586 
L 48.303125 210.888586 
L 48.653125 211.324188 
L 50.053125 211.324188 
L 50.403125 212.599219 
L 242.203125 212.599219 
L 242.203125 212.599219 
" style="fill:none;stroke:#202020;stroke-linecap:square;stroke-width:2;"/>
   </g>
   <g id="line2d_26">
    <path clip-path="url(#p5b8fd23658)" d="M 40.603125 212.599219 
L 40.953125 212.029008 
L 41.303125 212.029008 
L 41.653125 211.324188 
L 42.353125 211.324188 
L 43.053125 210.543294 
L 43.403125 210.543294 
L 43.753125 210.248179 
L 44.103125 210.248179 
L 44.453125 209.748164 
L 45.153125 209.748164 
L 45.503125 209.528539 
L 46.903125 209.528539 
L 47.253125 209.130761 
L 47.603125 209.528539 
L 47.953125 209.130761 
L 49.353125 209.130761 
L 49.703125 209.528539 
L 50.403125 209.528539 
L 50.753125 209.748164 
L 51.103125 210.248179 
L 51.453125 209.748164 
L 51.803125 210.248179 
L 52.503125 210.71594 
L 52.853125 211.324188 
L 53.203125 211.324188 
L 53.903125 212.599219 
L 242.203125 212.599219 
L 242.203125 212.599219 
" style="fill:none;stroke:#000000;stroke-linecap:square;stroke-width:2;"/>
   </g>
   <g id="line2d_27">
    <path clip-path="url(#p5b8fd23658)" d="M 40.603125 212.599219 
L 41.303125 211.324188 
L 41.653125 211.324188 
L 42.003125 210.543294 
L 42.353125 210.248179 
L 42.703125 209.748164 
L 43.053125 209.528539 
L 44.453125 208.002031 
L 44.803125 208.002031 
L 45.853125 207.21986 
L 46.203125 207.21986 
L 46.903125 206.646042 
L 47.953125 206.537794 
L 48.303125 206.431445 
L 48.653125 206.646042 
L 49.003125 206.431445 
L 49.353125 206.431445 
L 49.703125 206.813013 
L 50.403125 206.86867 
L 51.103125 206.983293 
L 51.453125 206.86867 
L 51.803125 207.21986 
L 52.153125 207.21986 
L 52.503125 207.727335 
L 53.203125 207.727335 
L 53.553125 208.002031 
L 53.903125 208.002031 
L 54.253125 208.145729 
L 54.603125 208.448021 
L 54.953125 208.448021 
L 55.303125 208.607742 
L 55.653125 208.948087 
L 56.003125 209.528539 
L 56.353125 209.748164 
L 56.703125 209.748164 
L 57.403125 211.324188 
L 57.753125 212.599219 
L 242.203125 212.599219 
L 242.203125 212.599219 
" style="fill:none;stroke:#202020;stroke-linecap:square;stroke-width:2;"/>
   </g>
   <g id="line2d_28">
    <path clip-path="url(#p5b8fd23658)" d="M 40.603125 212.599219 
L 41.303125 211.324188 
L 42.353125 209.130761 
L 42.703125 208.774128 
L 43.403125 207.727335 
L 44.803125 205.629627 
L 45.153125 205.546099 
L 45.503125 204.843512 
L 45.853125 204.435041 
L 46.203125 204.435041 
L 46.553125 203.645324 
L 46.903125 203.38718 
L 47.253125 203.316858 
L 47.953125 202.818994 
L 48.303125 202.640913 
L 48.653125 202.818994 
L 49.003125 202.193846 
L 49.353125 202.193846 
L 49.703125 202.319595 
L 50.053125 202.319595 
L 50.403125 202.113064 
L 50.753125 201.765211 
L 51.103125 202.446902 
L 51.453125 202.131538 
L 52.853125 202.319595 
L 53.203125 202.113064 
L 53.903125 202.511158 
L 54.253125 203.309878 
L 54.603125 203.296074 
L 54.953125 203.040742 
L 55.303125 203.450956 
L 55.653125 203.316858 
L 56.003125 204.038486 
L 56.353125 204.046055 
L 56.703125 203.458042 
L 57.403125 204.403779 
L 57.753125 205.638908 
L 58.453125 205.629627 
L 58.803125 206.224067 
L 59.153125 206.537794 
L 59.503125 205.73297 
L 59.853125 206.224067 
L 60.203125 206.410707 
L 60.553125 206.224067 
L 60.903125 206.410707 
L 61.253125 206.97183 
L 61.953125 206.983293 
L 62.303125 206.516704 
L 62.653125 206.983293 
L 63.003125 207.21986 
L 63.703125 207.21986 
L 64.053125 207.342134 
L 64.403125 207.701333 
L 64.753125 207.727335 
L 65.103125 208.002031 
L 65.453125 207.21986 
L 65.803125 207.329907 
L 66.153125 206.983293 
L 66.503125 207.329907 
L 66.853125 208.002031 
L 67.203125 207.974562 
L 67.553125 207.342134 
L 67.903125 207.688815 
L 68.253125 207.688815 
L 68.603125 208.002031 
L 69.303125 208.002031 
L 69.653125 207.342134 
L 70.003125 208.002031 
L 70.353125 208.002031 
L 70.703125 207.342134 
L 71.053125 207.329907 
L 71.403125 208.002031 
L 71.753125 208.002031 
L 72.103125 209.726202 
L 72.453125 209.748164 
L 72.803125 209.112494 
L 73.503125 209.748164 
L 73.853125 209.528539 
L 74.203125 209.748164 
L 74.553125 209.130761 
L 74.903125 209.748164 
L 75.253125 209.488761 
L 75.603125 208.59177 
L 75.953125 208.448021 
L 76.653125 209.748164 
L 77.003125 211.280628 
L 77.353125 210.888586 
L 78.053125 210.854057 
L 78.403125 212.599219 
L 80.153125 212.599219 
L 80.503125 211.324188 
L 81.203125 211.280628 
L 81.553125 211.958526 
L 81.903125 211.958526 
L 82.253125 209.748164 
L 82.603125 210.513783 
L 83.303125 211.280628 
L 83.653125 212.599219 
L 242.203125 212.599219 
L 242.203125 212.599219 
" style="fill:none;stroke:#404040;stroke-linecap:square;stroke-width:2;"/>
   </g>
   <g id="legend_1">
    <g id="patch_5">
     <path d="M 47.603125 63.033594 
L 187.426563 63.033594 
Q 189.426563 63.033594 189.426563 61.033594 
L 189.426563 17.999219 
Q 189.426563 15.999219 187.426563 15.999219 
L 47.603125 15.999219 
Q 45.603125 15.999219 45.603125 17.999219 
L 45.603125 61.033594 
Q 45.603125 63.033594 47.603125 63.033594 
z
" style="fill:#ffffff;opacity:0.8;stroke:#000000;stroke-linejoin:miter;"/>
    </g>
    <g id="patch_6">
     <path d="M 49.603125 27.597656 
L 69.603125 27.597656 
L 69.603125 20.597656 
L 49.603125 20.597656 
z
" style="fill:#909090;stroke:#909090;stroke-linejoin:miter;"/>
    </g>
    <g id="text_14">
     <!-- 25% - 75% percentile -->
     <defs>
      <path d="M 72.703125 32.078125 
Q 68.453125 32.078125 66.03125 28.46875 
Q 63.625 24.859375 63.625 18.40625 
Q 63.625 12.0625 66.03125 8.421875 
Q 68.453125 4.78125 72.703125 4.78125 
Q 76.859375 4.78125 79.265625 8.421875 
Q 81.6875 12.0625 81.6875 18.40625 
Q 81.6875 24.8125 79.265625 28.4375 
Q 76.859375 32.078125 72.703125 32.078125 
z
M 72.703125 38.28125 
Q 80.421875 38.28125 84.953125 32.90625 
Q 89.5 27.546875 89.5 18.40625 
Q 89.5 9.28125 84.9375 3.921875 
Q 80.375 -1.421875 72.703125 -1.421875 
Q 64.890625 -1.421875 60.34375 3.921875 
Q 55.8125 9.28125 55.8125 18.40625 
Q 55.8125 27.59375 60.375 32.9375 
Q 64.9375 38.28125 72.703125 38.28125 
z
M 22.3125 68.015625 
Q 18.109375 68.015625 15.6875 64.375 
Q 13.28125 60.75 13.28125 54.390625 
Q 13.28125 47.953125 15.671875 44.328125 
Q 18.0625 40.71875 22.3125 40.71875 
Q 26.5625 40.71875 28.96875 44.328125 
Q 31.390625 47.953125 31.390625 54.390625 
Q 31.390625 60.6875 28.953125 64.34375 
Q 26.515625 68.015625 22.3125 68.015625 
z
M 66.40625 74.21875 
L 74.21875 74.21875 
L 28.609375 -1.421875 
L 20.796875 -1.421875 
z
M 22.3125 74.21875 
Q 30.03125 74.21875 34.609375 68.875 
Q 39.203125 63.53125 39.203125 54.390625 
Q 39.203125 45.171875 34.640625 39.84375 
Q 30.078125 34.515625 22.3125 34.515625 
Q 14.546875 34.515625 10.03125 39.859375 
Q 5.515625 45.21875 5.515625 54.390625 
Q 5.515625 63.484375 10.046875 68.84375 
Q 14.59375 74.21875 22.3125 74.21875 
z
" id="DejaVuSans-37"/>
      <path d="M 4.890625 31.390625 
L 31.203125 31.390625 
L 31.203125 23.390625 
L 4.890625 23.390625 
z
" id="DejaVuSans-45"/>
      <path d="M 8.203125 72.90625 
L 55.078125 72.90625 
L 55.078125 68.703125 
L 28.609375 0 
L 18.3125 0 
L 43.21875 64.59375 
L 8.203125 64.59375 
z
" id="DejaVuSans-55"/>
      <path d="M 48.78125 52.59375 
L 48.78125 44.1875 
Q 44.96875 46.296875 41.140625 47.34375 
Q 37.3125 48.390625 33.40625 48.390625 
Q 24.65625 48.390625 19.8125 42.84375 
Q 14.984375 37.3125 14.984375 27.296875 
Q 14.984375 17.28125 19.8125 11.734375 
Q 24.65625 6.203125 33.40625 6.203125 
Q 37.3125 6.203125 41.140625 7.25 
Q 44.96875 8.296875 48.78125 10.40625 
L 48.78125 2.09375 
Q 45.015625 0.34375 40.984375 -0.53125 
Q 36.96875 -1.421875 32.421875 -1.421875 
Q 20.0625 -1.421875 12.78125 6.34375 
Q 5.515625 14.109375 5.515625 27.296875 
Q 5.515625 40.671875 12.859375 48.328125 
Q 20.21875 56 33.015625 56 
Q 37.15625 56 41.109375 55.140625 
Q 45.0625 54.296875 48.78125 52.59375 
z
" id="DejaVuSans-99"/>
     </defs>
     <g transform="translate(77.603125 27.597656)scale(0.1 -0.1)">
      <use xlink:href="#DejaVuSans-50"/>
      <use x="63.623047" xlink:href="#DejaVuSans-53"/>
      <use x="127.246094" xlink:href="#DejaVuSans-37"/>
      <use x="222.265625" xlink:href="#DejaVuSans-32"/>
      <use x="254.052734" xlink:href="#DejaVuSans-45"/>
      <use x="290.136719" xlink:href="#DejaVuSans-32"/>
      <use x="321.923828" xlink:href="#DejaVuSans-55"/>
      <use x="385.546875" xlink:href="#DejaVuSans-53"/>
      <use x="449.169922" xlink:href="#DejaVuSans-37"/>
      <use x="544.189453" xlink:href="#DejaVuSans-32"/>
      <use x="575.976562" xlink:href="#DejaVuSans-112"/>
      <use x="639.453125" xlink:href="#DejaVuSans-101"/>
      <use x="700.976562" xlink:href="#DejaVuSans-114"/>
      <use x="742.058594" xlink:href="#DejaVuSans-99"/>
      <use x="797.039062" xlink:href="#DejaVuSans-101"/>
      <use x="858.5625" xlink:href="#DejaVuSans-110"/>
      <use x="921.941406" xlink:href="#DejaVuSans-116"/>
      <use x="961.150391" xlink:href="#DejaVuSans-105"/>
      <use x="988.933594" xlink:href="#DejaVuSans-108"/>
      <use x="1016.716797" xlink:href="#DejaVuSans-101"/>
     </g>
    </g>
    <g id="patch_7">
     <path d="M 49.603125 42.275781 
L 69.603125 42.275781 
L 69.603125 35.275781 
L 49.603125 35.275781 
z
" style="fill:#505050;stroke:#505050;stroke-linejoin:miter;"/>
    </g>
    <g id="text_15">
     <!-- 10% - 90% percentile -->
     <defs>
      <path d="M 10.984375 1.515625 
L 10.984375 10.5 
Q 14.703125 8.734375 18.5 7.8125 
Q 22.3125 6.890625 25.984375 6.890625 
Q 35.75 6.890625 40.890625 13.453125 
Q 46.046875 20.015625 46.78125 33.40625 
Q 43.953125 29.203125 39.59375 26.953125 
Q 35.25 24.703125 29.984375 24.703125 
Q 19.046875 24.703125 12.671875 31.3125 
Q 6.296875 37.9375 6.296875 49.421875 
Q 6.296875 60.640625 12.9375 67.421875 
Q 19.578125 74.21875 30.609375 74.21875 
Q 43.265625 74.21875 49.921875 64.515625 
Q 56.59375 54.828125 56.59375 36.375 
Q 56.59375 19.140625 48.40625 8.859375 
Q 40.234375 -1.421875 26.421875 -1.421875 
Q 22.703125 -1.421875 18.890625 -0.6875 
Q 15.09375 0.046875 10.984375 1.515625 
z
M 30.609375 32.421875 
Q 37.25 32.421875 41.125 36.953125 
Q 45.015625 41.5 45.015625 49.421875 
Q 45.015625 57.28125 41.125 61.84375 
Q 37.25 66.40625 30.609375 66.40625 
Q 23.96875 66.40625 20.09375 61.84375 
Q 16.21875 57.28125 16.21875 49.421875 
Q 16.21875 41.5 20.09375 36.953125 
Q 23.96875 32.421875 30.609375 32.421875 
z
" id="DejaVuSans-57"/>
     </defs>
     <g transform="translate(77.603125 42.275781)scale(0.1 -0.1)">
      <use xlink:href="#DejaVuSans-49"/>
      <use x="63.623047" xlink:href="#DejaVuSans-48"/>
      <use x="127.246094" xlink:href="#DejaVuSans-37"/>
      <use x="222.265625" xlink:href="#DejaVuSans-32"/>
      <use x="254.052734" xlink:href="#DejaVuSans-45"/>
      <use x="290.136719" xlink:href="#DejaVuSans-32"/>
      <use x="321.923828" xlink:href="#DejaVuSans-57"/>
      <use x="385.546875" xlink:href="#DejaVuSans-48"/>
      <use x="449.169922" xlink:href="#DejaVuSans-37"/>
      <use x="544.189453" xlink:href="#DejaVuSans-32"/>
      <use x="575.976562" xlink:href="#DejaVuSans-112"/>
      <use x="639.453125" xlink:href="#DejaVuSans-101"/>
      <use x="700.976562" xlink:href="#DejaVuSans-114"/>
      <use x="742.058594" xlink:href="#DejaVuSans-99"/>
      <use x="797.039062" xlink:href="#DejaVuSans-101"/>
      <use x="858.5625" xlink:href="#DejaVuSans-110"/>
      <use x="921.941406" xlink:href="#DejaVuSans-116"/>
      <use x="961.150391" xlink:href="#DejaVuSans-105"/>
      <use x="988.933594" xlink:href="#DejaVuSans-108"/>
      <use x="1016.716797" xlink:href="#DejaVuSans-101"/>
     </g>
    </g>
    <g id="line2d_29">
     <path d="M 49.603125 53.453906 
L 69.603125 53.453906 
" style="fill:none;stroke:#000000;stroke-linecap:square;stroke-width:2;"/>
    </g>
    <g id="line2d_30"/>
    <g id="text_16">
     <!-- Median -->
     <defs>
      <path d="M 45.40625 46.390625 
L 45.40625 75.984375 
L 54.390625 75.984375 
L 54.390625 0 
L 45.40625 0 
L 45.40625 8.203125 
Q 42.578125 3.328125 38.25 0.953125 
Q 33.9375 -1.421875 27.875 -1.421875 
Q 17.96875 -1.421875 11.734375 6.484375 
Q 5.515625 14.40625 5.515625 27.296875 
Q 5.515625 40.1875 11.734375 48.09375 
Q 17.96875 56 27.875 56 
Q 33.9375 56 38.25 53.625 
Q 42.578125 51.265625 45.40625 46.390625 
z
M 14.796875 27.296875 
Q 14.796875 17.390625 18.875 11.75 
Q 22.953125 6.109375 30.078125 6.109375 
Q 37.203125 6.109375 41.296875 11.75 
Q 45.40625 17.390625 45.40625 27.296875 
Q 45.40625 37.203125 41.296875 42.84375 
Q 37.203125 48.484375 30.078125 48.484375 
Q 22.953125 48.484375 18.875 42.84375 
Q 14.796875 37.203125 14.796875 27.296875 
z
" id="DejaVuSans-100"/>
     </defs>
     <g transform="translate(77.603125 56.953906)scale(0.1 -0.1)">
      <use xlink:href="#DejaVuSans-77"/>
      <use x="86.279297" xlink:href="#DejaVuSans-101"/>
      <use x="147.802734" xlink:href="#DejaVuSans-100"/>
      <use x="211.279297" xlink:href="#DejaVuSans-105"/>
      <use x="239.0625" xlink:href="#DejaVuSans-97"/>
      <use x="300.341797" xlink:href="#DejaVuSans-110"/>
     </g>
    </g>
   </g>
  </g>
 </g>
 <defs>
  <clipPath id="p5b8fd23658">
   <rect height="201.6" width="201.6" x="40.603125" y="10.999219"/>
  </clipPath>
 </defs>
</svg>
